<svg width="21" height="20" viewBox="0 0 21 20" fill="none" xmlns="http://www.w3.org/2000/svg">
<path fill-rule="evenodd" clip-rule="evenodd" d="M0.778608 6.92649L6.58833 6.03742L9.18589 0.530273C9.51938 -0.176758 10.4828 -0.176758 10.8163 0.530273L13.4129 6.03742L19.2236 6.92649C19.9335 7.03508 20.2367 7.90994 19.7978 8.46817L19.7264 8.54939L15.523 12.8331L16.5153 18.8857C16.6369 19.6276 15.9321 20.2013 15.2877 19.9327L15.1962 19.8885L10.0011 17.0296L4.80599 19.8885C4.16937 20.2389 3.43009 19.7148 3.47499 18.9905L3.48683 18.8857L4.47831 12.8331L0.27578 8.54939C-0.238158 8.02554 0.00682754 7.1309 0.675216 6.94839L0.778608 6.92649ZM11.995 7.32808L10.0011 3.09958L8.00717 7.32808C7.87486 7.60859 7.61923 7.80311 7.32345 7.84835L2.86284 8.53002L6.0899 11.8195C6.27753 12.0108 6.37592 12.2759 6.36368 12.546L6.35161 12.6619L5.59014 17.3064L9.57795 15.1125C9.80973 14.9849 10.081 14.969 10.3227 15.0647L10.4242 15.1125L14.4111 17.3064L13.6506 12.6619C13.6063 12.3917 13.6757 12.1168 13.8374 11.9058L13.9123 11.8195L17.1384 8.53002L12.6787 7.84835C12.4199 7.80876 12.1919 7.65488 12.0502 7.42911L11.995 7.32808Z" fill="#8A9493"/>
</svg>
