<svg width="18" height="20" viewBox="0 0 18 20" fill="none" xmlns="http://www.w3.org/2000/svg">
<path fill-rule="evenodd" clip-rule="evenodd" d="M13.4939 0.803072C13.442 0.350946 13.0616 0 12.6 0C12.1029 0 11.7 0.407014 11.7 0.909091V1.81818H6.3V0.909091L6.29395 0.803072C6.24196 0.350946 5.86155 0 5.4 0C4.90294 0 4.5 0.407014 4.5 0.909091V1.81818H2.7C1.20883 1.81818 0 3.03922 0 4.54545V8.18182V17.2727C0 18.779 1.20883 20 2.7 20H15.3C16.7912 20 18 18.779 18 17.2727V8.18182V4.54545C18 3.03922 16.7912 1.81818 15.3 1.81818H13.5V0.909091L13.4939 0.803072ZM16.2 7.27273V4.54545C16.2 4.04338 15.7971 3.63636 15.3 3.63636H13.5V4.54545C13.5 5.04753 13.0971 5.45455 12.6 5.45455C12.1384 5.45455 11.758 5.1036 11.7061 4.65147L11.7 4.54545V3.63636H6.3V4.54545C6.3 5.04753 5.89706 5.45455 5.4 5.45455C4.93845 5.45455 4.55804 5.1036 4.50605 4.65147L4.5 4.54545V3.63636H2.7C2.20294 3.63636 1.8 4.04338 1.8 4.54545V7.27273H16.2ZM1.8 9.09091H16.2V17.2727C16.2 17.7748 15.7971 18.1818 15.3 18.1818H2.7C2.20294 18.1818 1.8 17.7748 1.8 17.2727V9.09091Z" fill="#8A9493"/>
</svg>
