<svg width="31" height="31" viewBox="0 0 31 31" fill="none" xmlns="http://www.w3.org/2000/svg">
<path d="M15.5 28.9316C13.7454 28.9345 12.0075 28.5909 10.386 27.9204C8.7646 27.2499 7.29153 26.2658 6.05142 25.0245C0.841279 19.8144 0.841279 11.3375 6.05142 6.12732C8.57525 3.60349 11.9307 2.21277 15.5 2.21277C19.0693 2.21277 22.4248 3.60242 24.9486 6.12732C30.1587 11.3375 30.1587 19.8144 24.9486 25.0245C23.7085 26.2658 22.2354 27.2499 20.614 27.9204C18.9925 28.5909 17.2546 28.9345 15.5 28.9316ZM15.5 4.3507C14.0253 4.34663 12.5645 4.63516 11.202 5.19958C9.83962 5.76399 8.60271 6.59308 7.56293 7.63884C3.18766 12.0152 3.18766 19.1356 7.56293 23.513C11.9393 27.8883 19.0597 27.8883 23.4371 23.513C27.8123 19.1366 27.8123 12.0163 23.4371 7.63884C22.3972 6.59327 21.1602 5.76431 19.7978 5.19991C18.4354 4.6355 16.9747 4.34687 15.5 4.3507Z" fill="#22C55E"/>
<path d="M13.8966 20.7048C13.7562 20.705 13.6171 20.6774 13.4874 20.6236C13.3577 20.5699 13.2399 20.491 13.1408 20.3916L8.60518 15.856C8.50593 15.7567 8.4272 15.6389 8.37349 15.5092C8.31977 15.3796 8.29213 15.2406 8.29213 15.1002C8.29213 14.9599 8.31977 14.8209 8.37349 14.6912C8.4272 14.5615 8.50593 14.4437 8.60518 14.3445C8.70442 14.2452 8.82225 14.1665 8.95192 14.1128C9.08159 14.0591 9.22058 14.0314 9.36093 14.0314C9.50129 14.0314 9.64027 14.0591 9.76995 14.1128C9.89962 14.1665 10.0174 14.2452 10.1167 14.3445L13.8966 18.1243L20.8855 11.1354C20.9847 11.0362 21.1025 10.9575 21.2322 10.9037C21.3619 10.85 21.5009 10.8224 21.6412 10.8224C21.7816 10.8224 21.9206 10.85 22.0502 10.9037C22.1799 10.9575 22.2977 11.0362 22.397 11.1354C22.4962 11.2347 22.5749 11.3525 22.6287 11.4822C22.6824 11.6119 22.71 11.7508 22.71 11.8912C22.71 12.0315 22.6824 12.1705 22.6287 12.3002C22.5749 12.4299 22.4962 12.5477 22.397 12.647L14.6523 20.3916C14.5532 20.491 14.4354 20.5699 14.3057 20.6236C14.176 20.6774 14.0369 20.705 13.8966 20.7048Z" fill="#22C55E"/>
</svg>
