<svg width="34" height="34" viewBox="0 0 34 34" fill="none" xmlns="http://www.w3.org/2000/svg">
<path d="M29.75 8.5H28.3333V7.08334C28.3333 6.70761 28.1841 6.34728 27.9184 6.0816C27.6527 5.81592 27.2924 5.66667 26.9167 5.66667C26.5409 5.66667 26.1806 5.81592 25.9149 6.0816C25.6493 6.34728 25.5 6.70761 25.5 7.08334V8.5H24.0833C23.7076 8.5 23.3473 8.64926 23.0816 8.91493C22.8159 9.18061 22.6667 9.54095 22.6667 9.91667C22.6667 10.2924 22.8159 10.6527 23.0816 10.9184C23.3473 11.1841 23.7076 11.3333 24.0833 11.3333H25.5V12.75C25.5 13.1257 25.6493 13.4861 25.9149 13.7517C26.1806 14.0174 26.5409 14.1667 26.9167 14.1667C27.2924 14.1667 27.6527 14.0174 27.9184 13.7517C28.1841 13.4861 28.3333 13.1257 28.3333 12.75V11.3333H29.75C30.1257 11.3333 30.4861 11.1841 30.7517 10.9184C31.0174 10.6527 31.1667 10.2924 31.1667 9.91667C31.1667 9.54095 31.0174 9.18061 30.7517 8.91493C30.4861 8.64926 30.1257 8.5 29.75 8.5ZM14.1667 15.5833C15.2874 15.5833 16.383 15.251 17.3149 14.6283C18.2468 14.0057 18.9731 13.1207 19.402 12.0852C19.8309 11.0498 19.9431 9.91038 19.7245 8.81116C19.5058 7.71193 18.9661 6.70223 18.1736 5.90973C17.3811 5.11723 16.3714 4.57754 15.2722 4.35889C14.173 4.14024 13.0336 4.25246 11.9981 4.68135C10.9627 5.11025 10.0777 5.83656 9.45501 6.76844C8.83234 7.70032 8.5 8.79591 8.5 9.91667C8.5 11.4196 9.09702 12.8609 10.1597 13.9236C11.2224 14.9863 12.6638 15.5833 14.1667 15.5833ZM14.1667 7.08334C14.727 7.08334 15.2748 7.24951 15.7408 7.56084C16.2067 7.87217 16.5699 8.31467 16.7843 8.8324C16.9988 9.35012 17.0549 9.91981 16.9456 10.4694C16.8362 11.019 16.5664 11.5239 16.1701 11.9201C15.7739 12.3164 15.269 12.5862 14.7194 12.6956C14.1698 12.8049 13.6001 12.7488 13.0824 12.5343C12.5647 12.3199 12.1222 11.9567 11.8108 11.4908C11.4995 11.0248 11.3333 10.477 11.3333 9.91667C11.3333 9.16522 11.6318 8.44455 12.1632 7.9132C12.6946 7.38185 13.4152 7.08334 14.1667 7.08334ZM14.1667 18.4167C11.5366 18.4167 9.01426 19.4615 7.15452 21.3212C5.29479 23.1809 4.25 25.7033 4.25 28.3333C4.25 28.7091 4.39926 29.0694 4.66493 29.3351C4.93061 29.6007 5.29094 29.75 5.66667 29.75C6.04239 29.75 6.40272 29.6007 6.6684 29.3351C6.93408 29.0694 7.08333 28.7091 7.08333 28.3333C7.08333 26.4547 7.82961 24.653 9.15799 23.3247C10.4864 21.9963 12.2881 21.25 14.1667 21.25C16.0453 21.25 17.847 21.9963 19.1753 23.3247C20.5037 24.653 21.25 26.4547 21.25 28.3333C21.25 28.7091 21.3993 29.0694 21.6649 29.3351C21.9306 29.6007 22.2909 29.75 22.6667 29.75C23.0424 29.75 23.4027 29.6007 23.6684 29.3351C23.9341 29.0694 24.0833 28.7091 24.0833 28.3333C24.0833 25.7033 23.0385 23.1809 21.1788 21.3212C19.3191 19.4615 16.7967 18.4167 14.1667 18.4167Z" fill="black"/>
</svg>
