<svg width="75" height="74" viewBox="0 0 75 74" fill="none" xmlns="http://www.w3.org/2000/svg">
<g clip-path="url(#clip0_6_482)">
<path fill-rule="evenodd" clip-rule="evenodd" d="M33.661 0C37.2556 2.29713 41.0061 4.34224 44.8854 6.12053C43.8108 7.4635 42.9124 8.93758 42.212 10.5071C39.2759 9.07436 36.423 7.47781 33.6671 5.72507C25.3114 12.1985 15.6984 15.4169 5.20641 14.8511C4.41295 44.9792 15.6984 61.6981 33.777 68.2567C46.7103 63.3895 56.0304 53.582 60.0892 38.5788H60.5531C62.0964 38.58 63.6347 38.4024 65.1368 38.0495C60.547 56.332 49.5668 68.0498 33.777 73.9818C11.9874 66.0664 -0.909315 46.6341 0.0489373 10.3428C11.5113 10.9512 22.7601 8.46896 33.661 0.0304201V0Z" fill="black"/>
<path fill-rule="evenodd" clip-rule="evenodd" d="M24.5969 32.3H25.5125V30.2862C25.5076 28.0486 26.369 25.8954 27.9172 24.2752C28.6669 23.4761 29.5733 22.839 30.5802 22.4035C31.587 21.9679 32.6729 21.7432 33.7705 21.7432C34.8681 21.7432 35.954 21.9679 36.9609 22.4035C37.9677 22.839 38.8741 23.4761 39.6238 24.2752C41.187 25.8886 42.0621 28.0432 42.0652 30.2862V32.3H42.9746C43.3324 32.3 43.6754 32.4417 43.9284 32.6939C44.1814 32.946 44.3235 33.288 44.3235 33.6446V47.8508C44.3219 48.2069 44.1793 48.548 43.9266 48.7998C43.674 49.0516 43.3319 49.1938 42.9746 49.1954H24.5969C24.2397 49.1938 23.8975 49.0516 23.6449 48.7998C23.3923 48.548 23.2497 48.2069 23.248 47.8508V33.6446C23.248 33.288 23.3902 32.946 23.6431 32.6939C23.8961 32.4417 24.2392 32.3 24.5969 32.3ZM28.0637 32.3H39.4834V30.2862C39.4934 28.7021 38.8874 27.1758 37.7927 26.0274C37.2787 25.4774 36.6566 25.0388 35.9651 24.739C35.2736 24.4391 34.5276 24.2843 33.7736 24.2843C33.0195 24.2843 32.2735 24.4391 31.582 24.739C30.8905 25.0388 30.2684 25.4774 29.7544 26.0274C28.6597 27.1758 28.0537 28.7021 28.0637 30.2862V32.3ZM32.6658 41.3713L31.2131 45.1738H36.334L34.9851 41.3166C35.5173 41.0424 35.9406 40.5965 36.1859 40.0517C36.4311 39.5069 36.4838 38.8953 36.3354 38.3167C36.187 37.7382 35.8463 37.2268 35.3688 36.8662C34.8913 36.5056 34.3052 36.3169 33.7063 36.3311C33.1074 36.3452 32.531 36.5613 32.0712 36.944C31.6113 37.3268 31.2952 37.8536 31.1745 38.4385C31.0537 39.0235 31.1355 39.6319 31.4063 40.1645C31.6771 40.6972 32.1211 41.1226 32.6658 41.3713Z" fill="black"/>
<path d="M57.4692 17.9835L57.0756 17.6547L57.0619 17.6958C56.3309 17.189 55.3491 16.7471 54.4232 16.6093C53.8666 16.5265 53.2976 16.5487 52.8088 16.7655C52.3054 16.9887 51.9198 17.4045 51.7281 18.0347L51.6522 18.2843L51.8698 18.4284C53.1317 19.2639 54.2538 20.2922 55.1948 21.4755L55.196 21.477C56.2466 22.7831 57.1313 24.2134 57.8301 25.7355L57.8301 25.7355L57.8318 25.7391L58.2346 26.5909L58.5373 27.2309L58.862 26.6018L59.2949 25.7631C59.295 25.7629 59.2951 25.7627 59.2952 25.7625C60.7003 23.0601 62.2765 20.4496 64.0143 17.9468L64.0184 17.9409L64.0223 17.9348C65.3904 15.7805 66.9274 13.7375 68.6189 11.825L69.3486 11.037L69.8929 10.4492H69.0918C68.2524 10.4492 67.6136 10.426 67.094 10.4071C66.8335 10.3976 66.603 10.3892 66.3921 10.3854C65.7822 10.3743 65.3278 10.4003 64.9104 10.6095C64.5012 10.8146 64.1681 11.1764 63.7351 11.7074C63.5846 11.8918 63.421 12.0985 63.2352 12.333C62.8676 12.7973 62.4135 13.3706 61.8045 14.097L61.8039 14.0978C60.557 15.5942 59.4059 17.1672 58.3572 18.8074C58.0759 18.5177 57.7795 18.2426 57.4692 17.9835ZM58.6046 19.0704C59.6581 17.4157 60.8165 15.8296 62.0728 14.3219L58.6046 19.0704ZM60.5652 4.56021C63.3511 4.56021 66.0745 5.38371 68.3907 6.92644C70.707 8.46917 72.5121 10.6618 73.578 13.2269C74.6439 15.792 74.9228 18.6145 74.3794 21.3375C73.836 24.0606 72.4948 26.562 70.525 28.5254C68.5553 30.4888 66.0456 31.8261 63.3132 32.3679C60.5808 32.9096 57.7486 32.6316 55.1748 31.5689C52.601 30.5062 50.4013 28.7066 48.8538 26.398C47.3063 24.0894 46.4804 21.3753 46.4804 18.5989C46.4804 14.876 47.964 11.3053 50.6053 8.67245C53.2467 6.03955 56.8293 4.56021 60.5652 4.56021Z" fill="#F5E100" stroke="black" stroke-width="0.7"/>
</g>
<defs>
<clipPath id="clip0_6_482">
<rect width="75" height="74" fill="white"/>
</clipPath>
</defs>
</svg>
