<svg width="24" height="24" viewBox="0 0 24 24" fill="none" xmlns="http://www.w3.org/2000/svg">
<path d="M2.4 10.8H3V4.05C3 2.6439 4.1439 1.5 5.55 1.5C6.576 1.5 7.4817 2.112 7.8831 3.0399C8.25131 3.03112 8.61535 3.11936 8.93866 3.29576C9.26198 3.47217 9.53321 3.73053 9.7251 4.0449C9.76646 4.11285 9.77914 4.19445 9.76035 4.27175C9.74156 4.34905 9.69284 4.41572 9.6249 4.4571L6.5499 6.3291C6.51624 6.34963 6.47887 6.36332 6.43991 6.36939C6.40096 6.37547 6.36119 6.3738 6.32288 6.3645C6.28457 6.35519 6.24847 6.33843 6.21664 6.31516C6.18482 6.29189 6.15789 6.26258 6.1374 6.2289C5.673 5.4657 5.7564 4.5219 6.2721 3.8535C6.22935 3.69468 6.13543 3.55438 6.00489 3.45432C5.87436 3.35426 5.71448 3.30002 5.55 3.3C5.1366 3.3 4.8 3.6366 4.8 4.05V10.8H13.2954L13.9842 9.0414C14.039 8.85553 14.1528 8.69249 14.3083 8.57682C14.4638 8.46115 14.6526 8.3991 14.8464 8.4H19.3536C19.7541 8.4 20.1006 8.658 20.2077 9.0183L20.9046 10.8H21.6C22.0962 10.8 22.5 11.2038 22.5 11.7C22.5 12.1962 22.0962 12.6 21.6 12.6H21.558L20.6058 18.8775C20.4672 19.9164 19.572 20.7 18.5241 20.7H18.5139C17.892 22.4946 17.5614 22.5 17.4 22.5C17.2386 22.5 16.908 22.4946 16.2861 20.7H7.7139C7.092 22.4946 6.7614 22.5 6.6 22.5C6.4386 22.5 6.108 22.4946 5.4861 20.7H5.4759C4.4277 20.7 3.5328 19.9164 3.3951 18.8829L2.442 12.6H2.4C1.9038 12.6 1.5 12.1962 1.5 11.7C1.5 11.2038 1.9038 10.8 2.4 10.8ZM6.5196 5.6448L9.0309 4.1163C8.79545 3.86322 8.47994 3.69908 8.13757 3.65153C7.79519 3.60399 7.44689 3.67595 7.1514 3.8553C6.85636 4.03543 6.63244 4.31176 6.51735 4.63773C6.40227 4.96369 6.40306 5.31936 6.5196 5.6448ZM5.55 2.7C6.0612 2.7 6.51 2.985 6.7389 3.4116C6.7722 3.3885 6.8046 3.3645 6.8394 3.3432C6.97667 3.2602 7.12303 3.19326 7.2756 3.1437C7.11085 2.82862 6.86288 2.56473 6.55864 2.38072C6.25441 2.19671 5.90555 2.09962 5.55 2.1C4.4748 2.1 3.6 2.9748 3.6 4.05V10.8H4.2V4.05C4.2 3.3057 4.8057 2.7 5.55 2.7ZM19.641 9.2139C19.6227 9.15192 19.5848 9.09756 19.533 9.05898C19.4812 9.0204 19.4182 8.9997 19.3536 9H14.8464C14.7129 9 14.5974 9.0861 14.5509 9.237L13.9395 10.8H20.2605L19.641 9.2139ZM17.4 21.786C17.5317 21.5625 17.7147 21.1359 17.8761 20.7H16.9239C17.0853 21.1359 17.2683 21.5625 17.4 21.786ZM6.6 21.786C6.7317 21.5625 6.9147 21.1359 7.0761 20.7H6.1239C6.2853 21.1359 6.4683 21.5625 6.6 21.786ZM3.9891 18.798C4.03805 19.1579 4.21554 19.488 4.4888 19.7273C4.76207 19.9666 5.11267 20.099 5.4759 20.1H18.5241C19.2729 20.1 19.9119 19.5405 20.0118 18.7929L20.9508 12.6H3.0489L3.9891 18.798ZM2.4 12H21.6C21.7653 12 21.9 11.8653 21.9 11.7C21.9 11.5347 21.7653 11.4 21.6 11.4H2.4C2.2347 11.4 2.1 11.5347 2.1 11.7C2.1 11.8653 2.2347 12 2.4 12Z" fill="black"/>
<path d="M12.4207 8.31601L12.8305 8.80801C12.8568 8.83812 12.8768 8.87319 12.8894 8.91116C12.902 8.94913 12.9069 8.98924 12.9037 9.02912C12.9006 9.069 12.8895 9.10784 12.8711 9.14337C12.8527 9.17891 12.8274 9.2104 12.7967 9.23601C12.766 9.26162 12.7304 9.28083 12.6922 9.2925C12.6539 9.30416 12.6137 9.30806 12.5739 9.30397C12.5341 9.29987 12.4956 9.28785 12.4605 9.26862C12.4254 9.2494 12.3945 9.22335 12.3697 9.19201L11.9599 8.70031C11.9335 8.67021 11.9135 8.63514 11.9009 8.59716C11.8883 8.55919 11.8834 8.51909 11.8866 8.47921C11.8897 8.43933 11.9008 8.40048 11.9192 8.36495C11.9376 8.32942 11.9629 8.29792 11.9936 8.27232C12.0243 8.24671 12.0599 8.2275 12.0981 8.21583C12.1364 8.20416 12.1766 8.20026 12.2164 8.20436C12.2562 8.20846 12.2948 8.22048 12.3298 8.2397C12.3649 8.25893 12.3958 8.28498 12.4207 8.31631V8.31601ZM11.2897 7.89601L10.5697 7.03201C10.5433 7.00191 10.5233 6.96684 10.5107 6.92886C10.4981 6.89089 10.4932 6.85079 10.4964 6.81091C10.4995 6.77103 10.5106 6.73218 10.529 6.69665C10.5474 6.66112 10.5727 6.62963 10.6034 6.60402C10.6341 6.57841 10.6697 6.5592 10.7079 6.54753C10.7462 6.53586 10.7864 6.53196 10.8262 6.53606C10.866 6.54016 10.9046 6.55218 10.9396 6.5714C10.9747 6.59063 11.0056 6.61668 11.0305 6.64801L11.7505 7.51201C11.7768 7.54212 11.7968 7.57719 11.8094 7.61516C11.822 7.65313 11.8269 7.69324 11.8237 7.73312C11.8206 7.773 11.8095 7.81184 11.7911 7.84738C11.7727 7.88291 11.7474 7.9144 11.7167 7.94001C11.686 7.96562 11.6504 7.98482 11.6122 7.9965C11.5739 8.00817 11.5337 8.01206 11.4939 8.00797C11.4541 8.00387 11.4156 7.99185 11.3805 7.97262C11.3454 7.9534 11.3145 7.92735 11.2897 7.89601ZM9.83045 5.20801L10.4071 5.90011C10.4334 5.93022 10.4534 5.96529 10.466 6.00326C10.4786 6.04123 10.4835 6.08134 10.4803 6.12122C10.4772 6.1611 10.4661 6.19994 10.4477 6.23548C10.4293 6.27101 10.404 6.3025 10.3733 6.32811C10.3426 6.35372 10.307 6.37292 10.2688 6.38459C10.2305 6.39626 10.1903 6.40016 10.1505 6.39607C10.1107 6.39197 10.0722 6.37995 10.0371 6.36072C10.002 6.3415 9.97112 6.31545 9.94625 6.28411L9.36965 5.59201C9.34331 5.56191 9.32326 5.52684 9.31068 5.48886C9.29809 5.45089 9.29323 5.41079 9.29637 5.37091C9.29952 5.33103 9.3106 5.29218 9.32898 5.25665C9.34736 5.22112 9.37266 5.18962 9.40339 5.16402C9.43412 5.13841 9.46966 5.1192 9.50792 5.10753C9.54619 5.09586 9.5864 5.09196 9.62619 5.09606C9.66598 5.10016 9.70455 5.11218 9.73963 5.1314C9.77471 5.15063 9.80559 5.17668 9.83045 5.20801ZM11.4001 10.2C11.3113 10.2 11.2231 10.1607 11.164 10.0851L10.8313 9.66091C10.7822 9.59826 10.76 9.51866 10.7696 9.43965C10.7792 9.36063 10.8197 9.28866 10.8824 9.23956C10.9451 9.19047 11.0247 9.16828 11.1037 9.17787C11.1827 9.18747 11.2547 9.22806 11.3038 9.29071L11.6362 9.71491C11.6709 9.75919 11.6924 9.81233 11.6984 9.86828C11.7043 9.92422 11.6944 9.98071 11.6698 10.0313C11.6452 10.0819 11.6068 10.1245 11.5591 10.1544C11.5114 10.1842 11.4563 10.2 11.4001 10.2ZM9.70505 7.25131L10.7362 8.56681C10.7852 8.62943 10.8075 8.70899 10.7979 8.78798C10.7883 8.86697 10.7478 8.93892 10.6852 8.98801C10.6225 9.03711 10.543 9.05931 10.464 9.04975C10.385 9.04018 10.313 8.99963 10.264 8.93701L9.23285 7.62151C9.20855 7.59051 9.19058 7.55502 9.17999 7.51707C9.1694 7.47913 9.16638 7.43946 9.17112 7.40035C9.17586 7.36124 9.18825 7.32344 9.20759 7.28912C9.22694 7.2548 9.25285 7.22462 9.28385 7.20031C9.31486 7.17601 9.35035 7.15804 9.3883 7.14745C9.42624 7.13686 9.4659 7.13384 9.50502 7.13858C9.54413 7.14332 9.58193 7.15571 9.61625 7.17505C9.65057 7.19439 9.68075 7.22031 9.70505 7.25131ZM8.63615 5.88781L9.04955 6.41491C9.09865 6.47757 9.12084 6.55716 9.11124 6.63618C9.10165 6.7152 9.06106 6.78717 8.9984 6.83626C8.93575 6.88536 8.85615 6.90755 8.77714 6.89795C8.69812 6.88836 8.62615 6.84777 8.57705 6.78511L8.16395 6.25771C8.13855 6.22682 8.11959 6.19116 8.10817 6.15283C8.09675 6.11451 8.09311 6.07428 8.09746 6.03453C8.10182 5.99477 8.11408 5.95629 8.13352 5.92134C8.15296 5.88639 8.1792 5.85568 8.21068 5.83102C8.24216 5.80635 8.27826 5.78823 8.31685 5.77772C8.35544 5.76721 8.39574 5.76453 8.43538 5.76982C8.47502 5.77511 8.5132 5.78828 8.54768 5.80854C8.58216 5.8288 8.61224 5.85576 8.63615 5.88781ZM9.53705 9.29131L10.1011 10.0158C10.1253 10.0469 10.1431 10.0824 10.1536 10.1204C10.1641 10.1584 10.1669 10.1981 10.1621 10.2372C10.1572 10.2763 10.1447 10.314 10.1253 10.3483C10.1058 10.3826 10.0798 10.4127 10.0487 10.4369C10.0176 10.4611 9.98207 10.4789 9.94409 10.4894C9.90611 10.4999 9.86644 10.5028 9.82734 10.4979C9.78824 10.493 9.75048 10.4805 9.71622 10.4611C9.68196 10.4416 9.65186 10.4156 9.62765 10.3845L9.06365 9.66001C9.01476 9.59724 8.99281 9.51761 9.00263 9.43865C9.01244 9.35968 9.05323 9.28786 9.116 9.23896C9.17878 9.19007 9.25841 9.16812 9.33737 9.17794C9.41633 9.18775 9.48816 9.22854 9.53705 9.29131ZM8.73125 8.74501C8.70021 8.76933 8.66466 8.78728 8.62666 8.79782C8.58866 8.80836 8.54894 8.81129 8.50981 8.80644C8.47067 8.80159 8.43287 8.78906 8.39859 8.76956C8.36431 8.75006 8.33423 8.72398 8.31005 8.69281L7.05725 7.08451C7.00832 7.0217 6.98635 6.94202 6.99617 6.863C7.00598 6.78398 7.04679 6.7121 7.1096 6.66316C7.17242 6.61423 7.2521 6.59226 7.33112 6.60207C7.41014 6.61189 7.48202 6.6527 7.53095 6.71551L8.78345 8.32381C8.8077 8.35489 8.82558 8.39044 8.83608 8.42843C8.84657 8.46643 8.84948 8.50611 8.84463 8.54523C8.83979 8.58435 8.82728 8.62212 8.80782 8.6564C8.78837 8.69068 8.76235 8.72079 8.73125 8.74501Z" fill="black"/>
</svg>
