<svg width="86" height="84" viewBox="0 0 86 84" fill="none" xmlns="http://www.w3.org/2000/svg">
<g clip-path="url(#clip0_7_516)">
<path d="M51.2511 74.2326C50.9983 75.5631 50.525 76.841 49.8514 78.0122C49.1524 79.2143 48.2553 80.2867 47.1989 81.183C46.1409 82.1 44.9299 82.819 43.6225 83.3064C42.3062 83.7806 40.9186 84.02 39.5213 84.0142C38.1219 84.0177 36.7323 83.7783 35.4131 83.3064C34.1088 82.8215 32.9019 82.1022 31.8507 81.183C30.7921 80.2889 29.8946 79.2161 29.1982 78.0122C28.5082 76.8031 28.0344 75.4806 27.7985 74.1052C27.7693 73.9402 27.7725 73.771 27.8081 73.6072C27.8437 73.4435 27.9109 73.2885 28.0058 73.1511C28.1007 73.0136 28.2215 72.8965 28.3613 72.8064C28.501 72.7163 28.657 72.6549 28.8203 72.6259H29.0442H50.0403C50.2069 72.625 50.3721 72.6575 50.5262 72.7215C50.6803 72.7856 50.8203 72.8799 50.9381 72.999C51.056 73.1182 51.1492 73.2598 51.2126 73.4156C51.2759 73.5715 51.308 73.7385 51.3071 73.907C51.2992 74.0241 51.2805 74.1402 51.2511 74.2538V74.2326ZM46.226 4.69972C47.2432 4.95773 48.2436 5.27921 49.2215 5.6623C49.8444 5.91003 50.4533 6.18606 51.0551 6.47626C49.6886 7.32226 48.4003 8.29113 47.2059 9.3711C46.2246 9.00665 45.2189 8.71336 44.1964 8.49345C43.7413 8.42926 43.3197 8.21588 42.996 7.88603C42.6724 7.55618 42.4647 7.12807 42.4048 6.66736C42.3813 5.949 42.1031 5.26316 41.6209 4.7351C41.0508 4.32002 40.3551 4.1197 39.6543 4.16888C38.9615 4.10296 38.2684 4.29139 37.7016 4.69972C37.2278 5.23968 36.9576 5.9315 36.9388 6.6532C36.8874 7.10137 36.6962 7.52135 36.393 7.85224C36.0897 8.18312 35.6901 8.40772 35.2521 8.49345C33.9712 8.7364 32.7137 9.09163 31.4938 9.55513C30.2795 10.0174 29.1084 10.5883 27.9944 11.2609C26.8945 11.9249 25.8526 12.6827 24.88 13.5258C23.9222 14.3679 23.035 15.2888 22.2275 16.2791C21.4161 17.2797 20.6859 18.3448 20.0439 19.4641C19.4002 20.599 18.8433 21.7821 18.3782 23.0031C17.9104 24.2318 17.5566 25.5018 17.3214 26.7968C17.087 28.1284 16.9722 29.4787 16.9785 30.8312V40.8039C16.9812 42.4218 16.8878 44.0385 16.6985 45.6451C16.5113 47.1675 16.2261 48.6759 15.8447 50.1608V50.2599C15.4375 51.7954 14.8989 53.2921 14.235 54.7331C13.5673 56.1724 12.7855 57.5547 11.8974 58.8666L11.8134 58.994C10.7602 60.497 9.54938 61.8805 8.20211 63.1203L8.14612 63.1699H71.0154C69.675 61.9383 68.4668 60.5671 67.4111 59.0789C67.1382 58.6825 66.8792 58.2932 66.6342 57.8898C68.1846 57.8121 69.7254 57.599 71.2394 57.2528C72.0237 58.2717 72.8949 59.219 73.8429 60.0839C75.208 61.3415 76.6681 62.4893 78.2101 63.5167C78.5651 63.7762 78.8311 64.1414 78.9706 64.5614C79.1101 64.9813 79.1163 65.4349 78.9882 65.8585C78.8602 66.2822 78.6043 66.6547 78.2564 66.9239C77.9085 67.1932 77.4861 67.3456 77.0483 67.36H2.09924C1.65178 67.3456 1.22059 67.1869 0.868601 66.9072C0.516616 66.6274 0.262269 66.2412 0.14269 65.8049C0.0231111 65.3686 0.0445612 64.905 0.203909 64.4819C0.363257 64.0588 0.652159 63.6983 1.02844 63.453C2.55459 62.4214 4.00266 61.2764 5.36064 60.0273C6.47699 59.0045 7.48125 57.8631 8.35608 56.6229C8.37781 56.5869 8.40365 56.5536 8.43307 56.5238C9.19267 55.4001 9.86202 54.2167 10.4347 52.9849C11.0014 51.7732 11.4537 50.5101 11.7854 49.2124V49.1345C12.1166 47.8287 12.362 46.5023 12.5203 45.1638C12.693 43.7265 12.7795 42.28 12.7793 40.8322V30.8382C12.7786 29.236 12.9215 27.6369 13.2062 26.0607C13.4832 24.5107 13.9002 22.9897 14.4519 21.5167C14.9936 20.0773 15.6513 18.6853 16.4186 17.3549C17.1719 16.0283 18.0384 14.7707 19.0081 13.5966C19.9732 12.4259 21.0337 11.3392 22.1785 10.3478C23.3432 9.35101 24.5861 8.45152 25.8948 7.65826C27.2184 6.87723 28.6043 6.20958 30.038 5.6623C31.0392 5.26785 32.0628 4.93459 33.1035 4.66433C33.4149 3.48221 34.0564 2.4158 34.9511 1.59254C36.2717 0.469742 37.9668 -0.099988 39.6893 1.8443e-05C41.403 -0.0682467 43.0793 0.517926 44.3854 1.64208C45.2753 2.46241 45.9141 3.52353 46.226 4.69972Z" fill="black"/>
<path d="M71.0951 10.9464C74.2695 11.9554 77.1516 13.7147 79.4953 16.074V16.1343C80.2796 16.8998 81.0212 17.7075 81.7167 18.5538C82.3869 19.3765 82.9665 20.2685 83.4455 21.2144C84.1166 22.5874 84.6299 24.0317 84.9754 25.5195C85.3204 27.0222 85.4944 28.5588 85.494 30.1002C85.501 32.7811 84.9744 35.4368 83.9448 37.9138C82.9152 40.3908 81.4029 42.6399 79.4953 44.5311C76.0939 47.928 71.5996 50.0225 66.802 50.4465C62.0043 50.8705 57.2101 49.597 53.2614 46.8496C49.3127 44.1022 46.4621 40.0567 45.2102 35.4237C43.9584 30.7906 44.3854 25.8663 46.4162 21.5158C47.397 19.4066 48.7429 17.4859 50.3923 15.8416C53.3525 12.9124 57.1514 10.9692 61.266 10.2793C64.5484 9.70843 67.9207 9.9373 71.0951 10.9464Z" fill="#F5E100"/>
<path d="M71 60L8 60" stroke="black" stroke-width="4"/>
<path d="M35.9572 13.6718C35.9383 12.8331 35.2413 12.1607 34.4088 12.2637C32.7271 12.4716 31.0888 12.9613 29.5634 13.7156C27.5832 14.6949 25.8418 16.0964 24.4617 17.8214C23.0816 19.5463 22.0964 21.5529 21.5754 23.6997C21.1742 25.3534 21.0559 27.0593 21.222 28.7455C21.3043 29.5804 22.1132 30.1129 22.9356 29.9473C23.7579 29.7817 24.2802 28.9802 24.2191 28.1436C24.1279 26.8956 24.231 25.638 24.5275 24.416C24.9438 22.7007 25.731 21.0974 26.8337 19.7192C27.9364 18.3409 29.3279 17.2211 30.9101 16.4386C32.0372 15.8812 33.2416 15.5047 34.4791 15.3198C35.3087 15.1958 35.9761 14.5104 35.9572 13.6718Z" fill="black"/>
<path d="M67.2459 24.6364V35.8572H64.1997V27.4416H64.1339L61.6794 28.9099V26.3239L64.4407 24.6364H67.2459Z" fill="black"/>
</g>
<defs>
<clipPath id="clip0_7_516">
<rect width="86" height="84" fill="white"/>
</clipPath>
</defs>
</svg>
