<svg width="81" height="88" viewBox="0 0 81 88" fill="none" xmlns="http://www.w3.org/2000/svg">
<path d="M7.53685 87.0815L7.44296 87.079C6.90023 87.0576 4.07912 86.8371 2.19969 84.693C0.272641 82.4936 0.042628 79.3312 0.016128 78.719C0.0135622 78.6615 0.01232 78.6039 0.0124019 78.5462V61.3227C-0.0156509 60.6132 -0.0533316 58.2164 0.606581 55.5545C1.23885 53.0022 2.01998 51.3266 2.24368 50.8745L9.34889 35.5769C9.3844 35.5001 9.42197 35.4259 9.46224 35.3538C9.68376 34.9538 10.8747 32.8949 12.5077 31.6585C14.2259 30.3563 16.3057 30.2556 16.9024 30.2556H61.7839C61.8417 30.2556 61.8988 30.2576 61.9578 30.2622C62.404 30.2969 64.7206 30.5349 66.5135 31.7831C68.2255 32.9763 69.6035 35.0615 69.8622 35.4666C69.9147 35.5496 69.964 35.6355 70.01 35.724L78.4487 51.9973C78.4847 52.069 78.5212 52.1438 78.5542 52.2205C78.7159 52.5984 79.55 54.5954 79.9724 56.5375C80.3896 58.4589 80.4902 60.5823 80.5055 60.988L80.5077 61.1266V78.3526C80.5172 79.2634 80.3794 82.3891 78.2489 84.7118C76.2312 86.9099 73.5149 87.0801 72.7305 87.0801H7.53685V87.0815ZM6.8139 54.3651C6.65862 54.7011 6.17572 55.8126 5.76973 57.4502C5.34097 59.1813 5.3919 60.7996 5.39873 60.9789C5.40254 61.0565 5.40485 61.1341 5.40567 61.2118V78.4327L5.41095 78.4803C5.44438 78.79 5.59966 79.5402 5.86735 79.8787L5.90337 79.9253L5.94581 79.9632C6.32054 80.2993 7.24907 80.4922 7.57339 80.516L72.7347 80.5172C73.2754 80.5096 74.2204 80.2902 74.6486 79.8232C75.0317 79.4052 75.1175 78.6881 75.1175 78.5733L75.1124 78.374V61.2273C75.0832 60.5584 74.9767 59.2252 74.7562 58.2152C74.5065 57.0613 73.9479 55.6789 73.8382 55.4145L73.808 55.35L65.5267 39.3786L65.5008 39.3405C65.187 38.8806 64.4344 37.8976 63.8334 37.4784C63.3129 37.1159 62.2529 36.8837 61.707 36.8218L61.6504 36.8185H16.912C16.4932 36.823 15.7153 36.9578 15.3559 37.2313C14.8497 37.6152 14.2504 38.4923 14.0039 38.9019L13.9827 38.9374L6.92197 54.1388L6.84567 54.2948L6.84671 54.2909C6.84464 54.2986 6.8139 54.3651 6.8139 54.3651Z" fill="#2C2C2C"/>
<path d="M40.1054 73.5791C34.0973 73.5791 28.8773 68.6771 27.4123 61.6601L27.2942 61.0945L3.34502 61.0771C2.62994 61.0752 1.94464 60.7285 1.4392 60.1129C0.933772 59.4973 0.649422 58.663 0.648438 57.7928C0.649561 56.9229 0.934057 56.0892 1.43955 55.4742C1.94504 54.8593 2.63028 54.5134 3.34502 54.5123L29.7168 54.5329C30.4314 54.5351 31.1163 54.8817 31.6214 55.497C32.1265 56.1123 32.4107 56.9461 32.4119 57.8158C32.4119 62.9746 35.7912 67.0149 40.1054 67.0149C44.4042 67.0149 47.7717 62.9747 47.7717 57.8159C47.7733 56.946 48.0578 56.1123 48.5632 55.497C49.0685 54.8818 49.7535 54.5351 50.4683 54.5329L76.5959 54.5128C78.0835 54.5128 79.2925 55.9829 79.2935 57.792C79.2945 59.6012 78.0857 61.0751 76.599 61.0777L52.8921 61.0951L52.7739 61.6607C51.3106 68.6776 46.1017 73.5791 40.1054 73.5791Z" fill="#2C2C2C"/>
<path d="M38.0963 24.4806C38.6019 25.0959 39.2875 25.4419 40.0025 25.4427C40.7174 25.4419 41.4029 25.0956 41.9085 24.4803C42.414 23.8651 42.6983 23.0309 42.699 22.1608V3.28169C42.6981 2.41148 42.4135 1.57728 41.9078 0.962067C41.4021 0.346854 40.7165 0.000866512 40.0014 0C39.2866 0.00120017 38.6013 0.347355 38.0959 0.962549C37.5905 1.57774 37.3062 2.41176 37.3054 3.28169V22.161C37.3062 23.0312 37.5907 23.8654 38.0963 24.4806Z" fill="#F5E100"/>
<path d="M56.177 24.3555C56.6825 24.9708 57.3679 25.3171 58.0829 25.3183L58.0871 25.3176C58.4883 25.3188 58.8846 25.2102 59.2467 24.9999C59.6089 24.7895 59.9275 24.4828 60.1791 24.1025L66.3435 14.8499C66.5674 14.5158 66.7345 14.1309 66.8352 13.7176C66.9359 13.3042 66.9682 12.8707 66.9302 12.4421C66.8946 12.013 66.7892 11.5967 66.6202 11.2176C66.4513 10.8385 66.2221 10.504 65.946 10.2336C65.4605 9.75437 64.8737 9.5009 64.2506 9.5009C63.8486 9.49973 63.4515 9.60829 63.0886 9.81859C62.7256 10.0289 62.406 10.3356 62.1534 10.7161L55.9888 19.9685C55.5995 20.5535 55.3869 21.2831 55.3863 22.0358C55.3872 22.9059 55.6715 23.7402 56.177 24.3555Z" fill="#F5E100"/>
<path d="M21.0551 24.7441C21.42 24.9581 21.8201 25.0687 22.2252 25.0673H22.2296C22.8399 25.066 23.4319 24.8137 23.9096 24.3514C24.4681 23.8082 24.8267 23.0175 24.9067 22.1528C24.9866 21.2882 24.7815 20.4203 24.3362 19.7395L18.2757 10.4878C17.761 9.70209 16.992 9.25134 16.1652 9.25134C15.5547 9.24918 14.9621 9.50187 14.4862 9.96727C13.9275 10.5104 13.5687 11.3011 13.4885 12.1658C13.4083 13.0305 13.6133 13.8986 14.0584 14.5796L20.1185 23.8315C20.3699 24.218 20.6902 24.53 21.0551 24.7441Z" fill="#F5E100"/>
</svg>
