<svg width="31" height="31" viewBox="0 0 31 31" fill="none" xmlns="http://www.w3.org/2000/svg">
<path d="M15.6465 28.9315C13.892 28.9348 12.1541 28.5913 10.5328 27.9208C8.91147 27.2503 7.43864 26.266 6.19893 25.0245C0.988794 19.8143 0.988794 11.3374 6.19893 6.12731C7.4368 4.88249 8.90928 3.89555 10.5311 3.22362C12.153 2.55169 13.892 2.2081 15.6475 2.21275C19.2168 2.21275 22.5723 3.60241 25.095 6.12731C27.6189 8.65113 29.0096 12.0066 29.0096 15.5759C29.0096 19.1452 27.6199 22.5007 25.095 25.0245C23.8551 26.266 22.3821 27.2503 20.7606 27.9208C19.1391 28.5913 17.4011 28.9348 15.6465 28.9315ZM15.6475 4.35069C14.1728 4.3465 12.7119 4.63497 11.3495 5.1994C9.98705 5.76382 8.75016 6.59297 7.71045 7.63882C5.59069 9.75858 4.42338 12.5774 4.42338 15.5759C4.42338 18.5743 5.59069 21.3921 7.71045 23.513C12.0868 27.8893 19.2082 27.8904 23.5835 23.513C25.7033 21.3932 26.8717 18.5743 26.8717 15.5759C26.8717 12.5774 25.7043 9.75965 23.5835 7.63882C22.5438 6.59329 21.307 5.76434 19.9448 5.19993C18.5826 4.63553 17.122 4.34688 15.6475 4.35069Z" fill="#EF4444"/>
<path d="M11.1119 21.1794C10.9003 21.1799 10.6933 21.1175 10.5172 21.0001C10.3411 20.8827 10.2039 20.7157 10.1229 20.5202C10.0419 20.3247 10.0209 20.1095 10.0624 19.902C10.1039 19.6945 10.2062 19.504 10.3561 19.3547L19.4263 10.2845C19.5256 10.1853 19.6434 10.1066 19.7731 10.0529C19.9027 9.99914 20.0417 9.9715 20.1821 9.9715C20.3224 9.9715 20.4614 9.99914 20.5911 10.0529C20.7208 10.1066 20.8386 10.1853 20.9378 10.2845C21.0371 10.3838 21.1158 10.5016 21.1695 10.6313C21.2232 10.761 21.2509 10.8999 21.2509 11.0403C21.2509 11.1807 21.2232 11.3196 21.1695 11.4493C21.1158 11.579 21.0371 11.6968 20.9378 11.7961L11.8677 20.8662C11.7687 20.9658 11.6509 21.0448 11.5212 21.0986C11.3914 21.1523 11.2523 21.1798 11.1119 21.1794Z" fill="#EF4444"/>
<path d="M20.1821 21.1794C20.0417 21.1796 19.9026 21.152 19.7729 21.0982C19.6432 21.0445 19.5254 20.9656 19.4263 20.8662L10.3561 11.7961C10.2569 11.6968 10.1782 11.579 10.1244 11.4493C10.0707 11.3196 10.0431 11.1807 10.0431 11.0403C10.0431 10.8999 10.0707 10.761 10.1244 10.6313C10.1782 10.5016 10.2569 10.3838 10.3561 10.2845C10.4554 10.1853 10.5732 10.1066 10.7029 10.0529C10.8326 9.99914 10.9715 9.9715 11.1119 9.9715C11.2523 9.9715 11.3912 9.99914 11.5209 10.0529C11.6506 10.1066 11.7684 10.1853 11.8677 10.2845L20.9378 19.3547C21.0878 19.504 21.19 19.6945 21.2316 19.902C21.2731 20.1095 21.252 20.3247 21.171 20.5202C21.0901 20.7157 20.9528 20.8827 20.7768 21.0001C20.6007 21.1175 20.3937 21.1799 20.1821 21.1794Z" fill="#EF4444"/>
</svg>
