<svg width="22" height="22" viewBox="0 0 22 22" fill="none" xmlns="http://www.w3.org/2000/svg">
<path d="M7.33345 10.0833C7.15215 10.0833 6.97493 10.137 6.82418 10.2377C6.67344 10.3385 6.55594 10.4816 6.48656 10.6491C6.41718 10.8166 6.39903 11.0009 6.4344 11.1788C6.46977 11.3566 6.55708 11.5199 6.68527 11.6481C6.81347 11.7763 6.97681 11.8636 7.15462 11.899C7.33244 11.9343 7.51675 11.9162 7.68425 11.8468C7.85175 11.7774 7.99491 11.6599 8.09563 11.5092C8.19636 11.3584 8.25012 11.1812 8.25012 10.9999C8.25012 10.7568 8.15354 10.5236 7.98164 10.3517C7.80973 10.1798 7.57657 10.0833 7.33345 10.0833ZM11.0001 10.0833C10.8188 10.0833 10.6416 10.137 10.4908 10.2377C10.3401 10.3385 10.2226 10.4816 10.1532 10.6491C10.0839 10.8166 10.0657 11.0009 10.1011 11.1788C10.1364 11.3566 10.2237 11.5199 10.3519 11.6481C10.4801 11.7763 10.6435 11.8636 10.8213 11.899C10.9991 11.9343 11.1834 11.9162 11.3509 11.8468C11.5184 11.7774 11.6616 11.6599 11.7623 11.5092C11.863 11.3584 11.9168 11.1812 11.9168 10.9999C11.9168 10.7568 11.8202 10.5236 11.6483 10.3517C11.4764 10.1798 11.2432 10.0833 11.0001 10.0833ZM14.6668 10.0833C14.4855 10.0833 14.3083 10.137 14.1575 10.2377C14.0068 10.3385 13.8893 10.4816 13.8199 10.6491C13.7505 10.8166 13.7324 11.0009 13.7677 11.1788C13.8031 11.3566 13.8904 11.5199 14.0186 11.6481C14.1468 11.7763 14.3101 11.8636 14.488 11.899C14.6658 11.9343 14.8501 11.9162 15.0176 11.8468C15.1851 11.7774 15.3282 11.6599 15.429 11.5092C15.5297 11.3584 15.5835 11.1812 15.5835 10.9999C15.5835 10.7568 15.4869 10.5236 15.315 10.3517C15.1431 10.1798 14.9099 10.0833 14.6668 10.0833ZM11.0001 1.83325C9.79634 1.83325 8.60434 2.07035 7.49219 2.53102C6.38004 2.99169 5.36951 3.6669 4.51831 4.51811C2.79923 6.23719 1.83345 8.56877 1.83345 10.9999C1.82544 13.1166 2.55835 15.1694 3.90512 16.8024L2.07179 18.6358C1.94459 18.7647 1.85843 18.9283 1.82417 19.1062C1.78991 19.284 1.80909 19.468 1.87929 19.6349C1.95542 19.7999 2.07885 19.9384 2.2339 20.0331C2.38894 20.1278 2.56862 20.1742 2.75012 20.1666H11.0001C13.4313 20.1666 15.7628 19.2008 17.4819 17.4817C19.201 15.7626 20.1668 13.4311 20.1668 10.9999C20.1668 8.56877 19.201 6.23719 17.4819 4.51811C15.7628 2.79902 13.4313 1.83325 11.0001 1.83325ZM11.0001 18.3333H4.95929L5.81179 17.4808C5.8984 17.3959 5.96731 17.2946 6.01451 17.1829C6.06172 17.0712 6.08628 16.9512 6.08679 16.8299C6.08334 16.5881 5.9845 16.3575 5.81179 16.1883C4.61149 14.9893 3.86403 13.4112 3.69675 11.723C3.52948 10.0347 3.95274 8.34067 4.89441 6.92948C5.83609 5.51829 7.23793 4.47725 8.86109 3.98373C10.4843 3.49021 12.2283 3.57474 13.7962 4.22292C15.364 4.87111 16.6586 6.04284 17.4594 7.53849C18.2601 9.03413 18.5176 10.7612 18.1878 12.4253C17.8581 14.0895 16.9615 15.5879 15.6509 16.6651C14.3402 17.7424 12.6967 18.3319 11.0001 18.3333Z" fill="black"/>
<circle cx="18" cy="6" r="2.5" fill="#FF0000" stroke="white"/>
</svg>
