<svg width="25" height="24" viewBox="0 0 25 24" fill="none" xmlns="http://www.w3.org/2000/svg">
<path d="M3.5 13H21.5V11H3.5V13ZM12.5 20C8.08172 20 4.5 16.4183 4.5 12H2.5C2.5 17.5228 6.97715 22 12.5 22V20ZM4.5 12C4.5 7.58172 8.08172 4 12.5 4V2C6.97715 2 2.5 6.47715 2.5 12H4.5ZM12.5 4C16.9183 4 20.5 7.58172 20.5 12H22.5C22.5 6.47715 18.0228 2 12.5 2V4ZM20.5 12C20.5 16.4183 16.9183 20 12.5 20V22C18.0228 22 22.5 17.5228 22.5 12H20.5ZM12.5 20C12.2731 20 11.9816 19.9007 11.6324 19.5683C11.278 19.2311 10.9134 18.6958 10.5854 17.9578C9.93054 16.4844 9.5 14.3789 9.5 12H7.5C7.5 14.5917 7.96489 16.9861 8.75776 18.7701C9.15364 19.6608 9.65092 20.4435 10.2536 21.0171C10.8615 21.5956 11.6223 22 12.5 22V20ZM9.5 12C9.5 9.62114 9.93054 7.51558 10.5854 6.04218C10.9134 5.30422 11.278 4.76892 11.6324 4.43166C11.9816 4.0993 12.2731 4 12.5 4V2C11.6223 2 10.8615 2.40438 10.2536 2.98287C9.65092 3.55645 9.15364 4.33918 8.75776 5.2299C7.96489 7.01386 7.5 9.40829 7.5 12H9.5ZM12.5 4C12.7269 4 13.0184 4.0993 13.3676 4.43166C13.722 4.76892 14.0866 5.30422 14.4146 6.04218C15.0695 7.51558 15.5 9.62114 15.5 12H17.5C17.5 9.40829 17.0351 7.01386 16.2422 5.2299C15.8464 4.33918 15.3491 3.55645 14.7464 2.98287C14.1385 2.40438 13.3777 2 12.5 2V4ZM15.5 12C15.5 14.3789 15.0695 16.4844 14.4146 17.9578C14.0866 18.6958 13.722 19.2311 13.3676 19.5683C13.0184 19.9007 12.7269 20 12.5 20V22C13.3777 22 14.1385 21.5956 14.7464 21.0171C15.3491 20.4435 15.8464 19.6608 16.2422 18.7701C17.0351 16.9861 17.5 14.5917 17.5 12H15.5Z" fill="#002961"/>
</svg>
