<svg width="35" height="36" viewBox="0 0 35 36" fill="none" xmlns="http://www.w3.org/2000/svg">
<g clip-path="url(#clip0_8_658)">
<path d="M29.5313 18.4844L32.9106 16.7814C33.0405 16.7159 33.1562 16.625 33.2509 16.514C33.3456 16.403 33.4174 16.2741 33.4621 16.1348C33.5068 15.9955 33.5236 15.8486 33.5114 15.7028C33.4992 15.5569 33.4583 15.4149 33.391 15.2852L30.0287 8.79541C29.896 8.53922 29.6687 8.34582 29.3959 8.25684C29.1231 8.16786 28.8265 8.19043 28.57 8.31968L25.1563 10.04L29.5313 18.4844ZM29.5313 18.4844L27.3438 21.0636L22.3129 26.1341C22.1794 26.2687 22.0135 26.3662 21.8315 26.417C21.6494 26.4678 21.4575 26.4702 21.2742 26.4241L13.3504 24.4275C13.2018 24.3901 13.0627 24.3216 12.942 24.2264L5.46876 18.3367M5.46876 18.3367L2.0894 16.6337C1.95948 16.5682 1.8438 16.4773 1.74912 16.3663C1.65443 16.2553 1.58263 16.1264 1.53791 15.9871C1.49319 15.8478 1.47645 15.701 1.48866 15.5551C1.50086 15.4092 1.54178 15.2672 1.60901 15.1375L4.97132 8.64772C5.10405 8.39154 5.33129 8.19813 5.60411 8.10915C5.87693 8.02017 6.17351 8.04273 6.42999 8.17198L9.84376 9.89231L5.46876 18.3367Z" stroke="#F5E100" stroke-width="2" stroke-linecap="round" stroke-linejoin="round"/>
<path d="M27.3438 21.0635L21.3281 16.6541L19.5781 17.9769C18.8208 18.5494 17.8997 18.8588 16.9531 18.8588C16.0065 18.8588 15.0854 18.5494 14.3281 17.9769L13.587 17.4167C13.4616 17.3219 13.358 17.2011 13.2829 17.0625C13.2079 16.9238 13.1634 16.7705 13.1523 16.613C13.1412 16.4554 13.1638 16.2973 13.2186 16.1494C13.2734 16.0014 13.3591 15.867 13.4699 15.7553L18.8203 10.3628C18.9218 10.2604 19.0424 10.1792 19.1751 10.1238C19.3078 10.0684 19.45 10.0399 19.5937 10.0399H25.1563" stroke="#F5E100" stroke-width="2" stroke-linecap="round" stroke-linejoin="round"/>
<path d="M9.92228 9.89224L16.9387 7.83062C17.1893 7.75697 17.4578 7.77612 17.6957 7.88459L22.4219 10.0399M15.3125 29.3313L11.1919 28.293C11.0247 28.2509 10.8697 28.1695 10.7396 28.0555L7.65625 25.3543" stroke="#F5E100" stroke-width="2" stroke-linecap="round" stroke-linejoin="round"/>
</g>
<defs>
<clipPath id="clip0_8_658">
<rect width="35" height="35.2756" fill="white"/>
</clipPath>
</defs>
</svg>
