<svg width="28" height="28" viewBox="0 0 28 28" fill="none" xmlns="http://www.w3.org/2000/svg">
<g clip-path="url(#clip0_6_443)">
<path d="M5.83337 19.8334C5.83337 17.6855 7.18554 16.3334 9.33337 16.3334C11.4812 16.3334 12.8334 17.6855 12.8334 19.8334H5.83337Z" fill="black"/>
<path d="M9.33333 15.1667C10.622 15.1667 11.6667 14.122 11.6667 12.8333C11.6667 11.5447 10.622 10.5 9.33333 10.5C8.04467 10.5 7 11.5447 7 12.8333C7 14.122 8.04467 15.1667 9.33333 15.1667Z" fill="black"/>
<path d="M15.1666 12.8334H22.1666V15.1667H15.1666V12.8334ZM15.1666 17.5H22.1666V19.8334H15.1666V17.5Z" fill="black"/>
<path d="M23.3334 5.83333H17.2842C16.8012 4.47767 15.519 3.5 14 3.5C12.481 3.5 11.1989 4.47767 10.7159 5.83333H4.66671C3.37987 5.83333 2.33337 6.87867 2.33337 8.16667V22.1667C2.33337 23.4535 3.37987 24.5 4.66671 24.5H23.3334C24.6202 24.5 25.6667 23.4535 25.6667 22.1667V8.16667C25.6667 6.87867 24.6202 5.83333 23.3334 5.83333ZM14 5.83333C14.6429 5.83333 15.1667 6.35717 15.1667 7C15.1667 7.64283 14.6429 8.16667 14 8.16667C13.3572 8.16667 12.8334 7.64283 12.8334 7C12.8334 6.35717 13.3572 5.83333 14 5.83333ZM4.66671 22.1667V8.16667H10.7159C11.1989 9.52233 12.481 10.5 14 10.5C15.519 10.5 16.8012 9.52233 17.2842 8.16667H23.3334L23.3345 22.1667H4.66671Z" fill="black"/>
</g>
<defs>
<clipPath id="clip0_6_443">
<rect width="28" height="28" fill="white"/>
</clipPath>
</defs>
</svg>
