<svg width="25" height="24" viewBox="0 0 25 24" fill="none" xmlns="http://www.w3.org/2000/svg">
<path d="M13.5 11C13.5 10.4477 13.0523 10 12.5 10C11.9477 10 11.5 10.4477 11.5 11H13.5ZM11.5 16C11.5 16.5523 11.9477 17 12.5 17C13.0523 17 13.5 16.5523 13.5 16H11.5ZM12.5498 8H13.5498C13.5498 7.44772 13.1021 7 12.5498 7V8ZM12.5498 8.1L12.5496 9.1C12.8148 9.10006 13.0692 8.99474 13.2568 8.80719C13.4444 8.61965 13.5498 8.36526 13.5498 8.1H12.5498ZM12.4502 8.09998H11.4502C11.4502 8.65216 11.8978 9.09984 12.45 9.09998L12.4502 8.09998ZM12.4502 8V7C11.8979 7 11.4502 7.44772 11.4502 8H12.4502ZM12.5 20C8.08172 20 4.5 16.4183 4.5 12H2.5C2.5 17.5228 6.97715 22 12.5 22V20ZM4.5 12C4.5 7.58172 8.08172 4 12.5 4V2C6.97715 2 2.5 6.47715 2.5 12H4.5ZM12.5 4C16.9183 4 20.5 7.58172 20.5 12H22.5C22.5 6.47715 18.0228 2 12.5 2V4ZM20.5 12C20.5 16.4183 16.9183 20 12.5 20V22C18.0228 22 22.5 17.5228 22.5 12H20.5ZM11.5 11V16H13.5V11H11.5ZM11.5498 8V8.1H13.5498V8H11.5498ZM12.55 7.1L12.4504 7.09998L12.45 9.09998L12.5496 9.1L12.55 7.1ZM13.4502 8.09998V8H11.4502V8.09998H13.4502ZM12.4502 9H12.5498V7H12.4502V9Z" fill="#002961"/>
</svg>
