<svg width="22" height="22" viewBox="0 0 22 22" fill="none" xmlns="http://www.w3.org/2000/svg">
<g clip-path="url(#clip0_5_172)">
<path d="M21.3125 0.34375H0.6875C0.596332 0.34375 0.508898 0.379966 0.444432 0.444432C0.379966 0.508898 0.34375 0.596332 0.34375 0.6875V4.8125C0.34375 4.90367 0.379966 4.9911 0.444432 5.05557C0.508898 5.12003 0.596332 5.15625 0.6875 5.15625H6.69762L5.87262 7.08331C5.85381 7.126 5.84398 7.1721 5.84375 7.21875V8.59375C5.84375 8.68492 5.87997 8.77235 5.94443 8.83682C6.0089 8.90128 6.09633 8.9375 6.1875 8.9375H15.8125C15.9037 8.9375 15.9911 8.90128 16.0556 8.83682C16.12 8.77235 16.1562 8.68492 16.1562 8.59375V7.21875C16.1563 7.17217 16.1469 7.12607 16.1284 7.08331L15.3024 5.15625H21.3125C21.4037 5.15625 21.4911 5.12003 21.5556 5.05557C21.62 4.9911 21.6562 4.90367 21.6562 4.8125V0.6875C21.6562 0.596332 21.62 0.508898 21.5556 0.444432C21.4911 0.379966 21.4037 0.34375 21.3125 0.34375ZM7.5625 4.46875V3.78125H14.4375V4.46875H7.5625ZM14.4375 3.09375H7.5625V1.03125H14.4375V3.09375ZM1.03125 1.03125H6.875V4.46875H1.03125V1.03125ZM6.53125 8.25V7.5625H15.4688V8.25H6.53125ZM15.2914 6.875H6.70863L7.44528 5.15625H14.5547L15.2914 6.875ZM20.9688 4.46875H15.125V1.03125H20.9688V4.46875ZM21.3125 13.0625H20.625V10.1406C20.625 9.82154 20.4982 9.51552 20.2726 9.28989C20.047 9.06426 19.741 8.9375 19.4219 8.9375C19.1028 8.9375 18.7968 9.06426 18.5711 9.28989C18.3455 9.51552 18.2188 9.82154 18.2188 10.1406V11H18.9062V10.1406C18.9062 10.0039 18.9606 9.87272 19.0573 9.77602C19.154 9.67933 19.2851 9.625 19.4219 9.625C19.5586 9.625 19.6898 9.67933 19.7865 9.77602C19.8832 9.87272 19.9375 10.0039 19.9375 10.1406V11.6875H19.25V12.375H19.9375V13.0625H13.0625V12.375H13.75V11.6875H13.0625V11C13.0625 10.9088 13.0263 10.8214 12.9618 10.7569C12.8974 10.6925 12.8099 10.6562 12.7188 10.6562H9.28125C9.19008 10.6562 9.10265 10.6925 9.03818 10.7569C8.97372 10.8214 8.9375 10.9088 8.9375 11V11.6875H8.25V12.375H8.9375V13.0625H5.70006C5.9619 12.822 6.17098 12.5298 6.31405 12.2044C6.45713 11.879 6.53109 11.5274 6.53125 11.1719V11C6.53125 10.9088 6.49503 10.8214 6.43057 10.7569C6.3661 10.6925 6.27867 10.6562 6.1875 10.6562H1.71875C1.62758 10.6562 1.54015 10.6925 1.47568 10.7569C1.41122 10.8214 1.375 10.9088 1.375 11V11.1719C1.37516 11.5274 1.44912 11.879 1.5922 12.2044C1.73527 12.5298 1.94435 12.822 2.20619 13.0625H0.6875C0.596332 13.0625 0.508898 13.0987 0.444432 13.1632C0.379966 13.2276 0.34375 13.3151 0.34375 13.4062V15.125C0.34375 15.2162 0.379966 15.3036 0.444432 15.3681C0.508898 15.4325 0.596332 15.4688 0.6875 15.4688H1.03125V21.3125C1.03125 21.4037 1.06747 21.4911 1.13193 21.5556C1.1964 21.62 1.28383 21.6562 1.375 21.6562H20.625C20.7162 21.6562 20.8036 21.62 20.8681 21.5556C20.9325 21.4911 20.9688 21.4037 20.9688 21.3125V15.4688H21.3125C21.4037 15.4688 21.4911 15.4325 21.5556 15.3681C21.62 15.3036 21.6562 15.2162 21.6562 15.125V13.4062C21.6562 13.3151 21.62 13.2276 21.5556 13.1632C21.4911 13.0987 21.4037 13.0625 21.3125 13.0625ZM9.625 11.3438H12.375V13.0625H9.625V11.3438ZM2.07006 11.3438H5.83619C5.794 11.814 5.57735 12.2515 5.22887 12.5701C4.88039 12.8888 4.4253 13.0654 3.95312 13.0654C3.48094 13.0654 3.02586 12.8888 2.67738 12.5701C2.3289 12.2515 2.11225 11.814 2.07006 11.3438ZM1.71875 15.4688H6.1875V20.9688H1.71875V15.4688ZM6.875 18.5625H15.125V20.9688H6.875V18.5625ZM15.125 17.875H6.875V15.4688H15.125V17.875ZM20.2812 20.9688H15.8125V15.4688H20.2812V20.9688ZM20.9688 14.7812H1.03125V13.75H20.9688V14.7812Z" fill="black"/>
<path d="M16.5 1.71875H15.8125V3.78125H16.5V1.71875Z" fill="black"/>
<path d="M17.1875 17.1875H16.5V19.25H17.1875V17.1875Z" fill="black"/>
<path d="M5.5 17.1875H4.8125V19.25H5.5V17.1875Z" fill="black"/>
<path d="M6.1875 1.71875H5.5V3.78125H6.1875V1.71875Z" fill="black"/>
<path d="M12.375 19.25H9.625V19.9375H12.375V19.25Z" fill="black"/>
<path d="M12.375 1.71875H9.625V2.40625H12.375V1.71875Z" fill="black"/>
<path d="M12.375 16.1562H9.625V16.8438H12.375V16.1562Z" fill="black"/>
</g>
<defs>
<clipPath id="clip0_5_172">
<rect width="22" height="22" fill="white"/>
</clipPath>
</defs>
</svg>
