<svg width="20" height="20" viewBox="0 0 20 20" fill="none" xmlns="http://www.w3.org/2000/svg">
<path d="M1.9635 9.13502L0 5.75822H1.12772V1.74904e-05H11.2791V1.59388H2.65652V5.75818H3.78424L1.9635 9.13502ZM13.6668 7.8498H11.8335L15.225 0H16.5837L19.9437 7.8582H18.0873L17.3881 6.13198H14.3431L13.6668 7.8498ZM14.9268 4.662H16.8168L15.8676 2.1903L14.9268 4.662ZM4.725 12.705H5.6784V15.2943C5.45398 15.4075 5.20515 15.4638 4.95387 15.4581C4.6738 15.4534 4.40015 15.3729 4.1622 15.225C4.05248 15.1296 3.93115 15.0484 3.80098 14.9835C4.23371 14.5666 4.46947 13.9859 4.44992 13.3854C4.44992 12.0645 3.60992 11.1783 2.34992 11.1783V11.1783C1.57794 11.1671 0.858182 11.5669 0.459917 12.2283L0.401128 12.327L1.42591 13.4715L1.52879 13.2741C1.59243 13.1178 1.70099 12.9838 1.84085 12.8892C1.98065 12.7946 2.14539 12.7437 2.31417 12.7428C2.71947 12.7428 2.97357 13.041 2.97357 13.5198C2.97357 13.8663 2.8644 14.448 2.13357 14.448L1.62539 14.448V16.0104H2.35623C2.97153 16.0104 3.28236 16.2876 3.28236 16.8357C3.28236 17.2851 3.05554 17.7639 2.42138 17.7639C1.69054 17.7639 1.2916 17.1339 1.1866 16.9239L1.0816 16.7307L8.74519e-06 17.955L0.0650877 18.0537C0.577173 18.8557 1.46351 19.3405 2.41499 19.3389C3.79257 19.3389 4.76069 18.3288 4.79429 16.8714C5.08222 16.9709 5.39373 16.9797 5.68679 16.8966V19.95H7.23451L7.23444 12.705H8.71497V19.95H10.2627V12.705H11.4513L11.4513 11.235H4.72496L4.725 12.705ZM16.1637 13.503H17.2914L17.2913 18.165H12.1841V19.95H18.8202L18.8202 13.503H19.95L17.9844 9.70833L16.1637 13.503Z" fill="#002961"/>
</svg>
