<svg width="24" height="24" viewBox="0 0 24 24" fill="none" xmlns="http://www.w3.org/2000/svg">
<g clip-path="url(#clip0_6_450)">
<path d="M12 0.47998C5.64814 0.47998 0.47998 5.64814 0.47998 12C0.47998 18.3518 5.64814 23.52 12 23.52C18.3518 23.52 23.52 18.3518 23.52 12C23.52 5.64814 18.3518 0.47998 12 0.47998ZM21.5601 7.52062L17.5584 9.17854C16.9572 8.00092 15.9995 7.04322 14.8219 6.44206L16.4798 2.4403C18.7118 3.49246 20.508 5.28865 21.5601 7.52062ZM12 17.28C9.08878 17.28 6.71998 14.9112 6.71998 12C6.71998 9.08878 9.08878 6.71998 12 6.71998C14.9112 6.71998 17.28 9.08878 17.28 12C17.28 14.9112 14.9112 17.28 12 17.28ZM15.5933 2.07022L13.9358 6.07102C13.3111 5.86547 12.6577 5.76048 12 5.75998C11.3237 5.75998 10.6742 5.87134 10.0641 6.07102L8.4067 2.07022C9.52894 1.66318 10.7385 1.43998 12 1.43998C13.2614 1.43998 14.471 1.66318 15.5933 2.07022ZM7.52062 2.43982L9.17854 6.44158C8.0008 7.04258 7.04306 8.00032 6.44206 9.17806L2.4403 7.52014C3.49246 5.28817 5.28865 3.49198 7.52062 2.43982ZM2.07022 8.4067L6.07102 10.0641C5.86551 10.6889 5.76052 11.3423 5.75998 12C5.75998 12.6763 5.87134 13.3257 6.07102 13.9358L2.07022 15.5933C1.66318 14.471 1.43998 13.2614 1.43998 12C1.43998 10.7385 1.66318 9.52894 2.07022 8.4067ZM2.43982 16.4793L6.44158 14.8214C7.04274 15.999 8.00044 16.9567 9.17806 17.5579L7.52014 21.5597C5.28817 20.5075 3.49198 18.7113 2.43982 16.4793ZM8.4067 21.9297L10.0641 17.9289C10.6742 18.1286 11.3237 18.24 12 18.24C12.6763 18.24 13.3257 18.1286 13.9358 17.9289L15.5933 21.9297C14.471 22.3368 13.2614 22.56 12 22.56C10.7385 22.56 9.52894 22.3368 8.4067 21.9297ZM16.4793 21.5601L14.8214 17.5584C15.999 16.9572 16.9567 15.9995 17.5579 14.8219L21.5597 16.4798C20.5075 18.7118 18.7113 20.508 16.4793 21.5601ZM21.9297 15.5933L17.9289 13.9358C18.1286 13.3257 18.24 12.6763 18.24 12C18.24 11.3237 18.1286 10.6742 17.9289 10.0641L21.9297 8.4067C22.3368 9.52894 22.56 10.7385 22.56 12C22.56 13.2614 22.3368 14.471 21.9297 15.5933Z" fill="black"/>
</g>
<defs>
<clipPath id="clip0_6_450">
<rect width="24" height="24" fill="white"/>
</clipPath>
</defs>
</svg>
