<svg width="25" height="24" viewBox="0 0 25 24" fill="none" xmlns="http://www.w3.org/2000/svg">
<path d="M7.71799 4.09204L8.60899 4.54603L7.71799 4.09204ZM8.5918 3.21799L9.04579 4.10899L8.5918 3.21799ZM8.5918 20.782L9.04579 19.891H9.04579L8.5918 20.782ZM7.71799 19.908L6.82698 20.362H6.82698L7.71799 19.908ZM17.2822 19.908L16.3912 19.454L17.2822 19.908ZM16.4078 20.782L15.9538 19.891L16.4078 20.782ZM17.2822 4.09204L16.3912 4.54603V4.54603L17.2822 4.09204ZM16.4078 3.21799L16.8618 2.32698V2.32698L16.4078 3.21799ZM12.5 6V5C11.9477 5 11.5 5.44772 11.5 6H12.5ZM12.502 6L13.5017 6.02336C13.508 5.75416 13.4055 5.49381 13.2173 5.3012C13.0292 5.10859 12.7713 5 12.502 5V6ZM12.502 6.002L12.5092 7.00197C13.0495 6.99808 13.4891 6.5656 13.5017 6.02536L12.502 6.002ZM12.5 6.00201H11.5C11.5 6.26848 11.6063 6.52392 11.7954 6.71166C11.9845 6.8994 12.2407 7.00391 12.5072 7.00199L12.5 6.00201ZM16.5 6.20001V17.8H18.5V6.20001H16.5ZM14.3002 20H10.7002V22H14.3002V20ZM8.5 17.8V6.20001H6.5V17.8H8.5ZM10.7002 4H14.3002V2H10.7002V4ZM8.5 6.20001C8.5 5.62346 8.50078 5.25119 8.52393 4.96785C8.54612 4.69619 8.5838 4.59548 8.60899 4.54603L6.82698 3.63805C6.63419 4.01643 6.56287 4.40964 6.53057 4.80499C6.49922 5.18866 6.5 5.65646 6.5 6.20001H8.5ZM10.7002 2C10.1566 2 9.68874 1.99922 9.30498 2.03057C8.90962 2.06286 8.51624 2.13416 8.13781 2.32698L9.04579 4.10899C9.09517 4.08383 9.19595 4.04613 9.4678 4.02393C9.75126 4.00078 10.1237 4 10.7002 4V2ZM8.60899 4.54603C8.705 4.35761 8.85788 4.20474 9.04579 4.10899L8.13781 2.32698C7.57306 2.61473 7.11447 3.07382 6.82698 3.63805L8.60899 4.54603ZM10.7002 20C10.1237 20 9.75127 19.9992 9.46782 19.9761C9.19598 19.9538 9.09519 19.9161 9.04579 19.891L8.13781 21.673C8.51623 21.8658 8.90959 21.9371 9.30496 21.9694C9.68873 22.0008 10.1566 22 10.7002 22V20ZM6.5 17.8C6.5 18.3436 6.49922 18.8114 6.53057 19.195C6.56287 19.5904 6.63419 19.9836 6.82698 20.362L8.60899 19.454C8.5838 19.4045 8.54612 19.3038 8.52393 19.0322C8.50078 18.7488 8.5 18.3766 8.5 17.8H6.5ZM9.04579 19.891C8.85784 19.7952 8.70498 19.6424 8.60899 19.454L6.82698 20.362C7.11449 20.9262 7.57311 21.3853 8.13781 21.673L9.04579 19.891ZM16.5 17.8C16.5 18.3767 16.4993 18.7489 16.4762 19.0323C16.454 19.304 16.4164 19.4046 16.3912 19.454L18.1732 20.362C18.3661 19.9835 18.4373 19.5902 18.4696 19.1949C18.5008 18.8113 18.5 18.3435 18.5 17.8H16.5ZM14.3002 22C14.8438 22 15.3115 22.0008 15.6951 21.9694C16.0904 21.9371 16.4835 21.8657 16.8618 21.673L15.9538 19.891C15.9043 19.9162 15.8036 19.9539 15.5321 19.9761C15.2489 19.9992 14.8767 20 14.3002 20V22ZM16.3912 19.454C16.2956 19.6417 16.1424 19.7949 15.9538 19.891L16.8618 21.673C17.4258 21.3856 17.8854 20.9269 18.1732 20.362L16.3912 19.454ZM18.5 6.20001C18.5 5.65656 18.5008 5.18875 18.4696 4.80515C18.4373 4.40986 18.3661 4.01654 18.1732 3.63805L16.3912 4.54603C16.4164 4.59536 16.454 4.69598 16.4762 4.96769C16.4993 5.2511 16.5 5.62336 16.5 6.20001H18.5ZM14.3002 4C14.8768 4 15.2489 4.00078 15.5321 4.02393C15.8036 4.04611 15.9043 4.08377 15.9538 4.10899L16.8618 2.32698C16.4835 2.13421 16.0904 2.06288 15.6951 2.03057C15.3115 1.99922 14.8437 2 14.3002 2V4ZM18.1732 3.63805C17.8854 3.07315 17.4259 2.61439 16.8618 2.32698L15.9538 4.10899C16.1424 4.20508 16.2956 4.35828 16.3912 4.54603L18.1732 3.63805ZM12.5 7H12.502V5H12.5V7ZM11.5023 5.97664L11.5022 5.97864L13.5017 6.02536L13.5017 6.02336L11.5023 5.97664ZM12.4948 5.00203L12.4928 5.00204L12.5072 7.00199L12.5092 7.00197L12.4948 5.00203ZM13.5 6.00201V6H11.5V6.00201H13.5Z" fill="#002961"/>
</svg>
