<svg width="30" height="30" viewBox="0 0 30 30" fill="none" xmlns="http://www.w3.org/2000/svg">
<path d="M26.6285 3.37143C25.8899 2.63777 24.891 2.22601 23.85 2.22601C22.8089 2.22601 21.81 2.63777 21.0714 3.37143L4.09281 20.35C3.93356 20.5144 3.82881 20.7239 3.79281 20.95L3.07139 25.7143C3.0477 25.8669 3.0573 26.0229 3.09952 26.1714C3.14174 26.32 3.21558 26.4577 3.31599 26.5751C3.4164 26.6924 3.541 26.7867 3.68124 26.8514C3.82149 26.9161 3.97407 26.9498 4.12853 26.95H4.29281L9.04996 26.2357C9.27603 26.1997 9.48552 26.095 9.64996 25.9357L26.6285 8.92857C27.3622 8.18993 27.7739 7.19109 27.7739 6.15C27.7739 5.10891 27.3622 4.11008 26.6285 3.37143ZM8.38567 24.1429L5.4071 24.5929L5.8571 21.6143L19.8 7.67857L22.3214 10.2L8.38567 24.1429ZM25.1142 7.41429L23.3357 9.19286L20.8071 6.66429L22.5857 4.88572C22.921 4.55041 23.3758 4.36203 23.85 4.36203C24.3242 4.36203 24.7789 4.55041 25.1142 4.88572C25.4496 5.22103 25.6379 5.6758 25.6379 6.15C25.6379 6.6242 25.4496 7.07898 25.1142 7.41429Z" fill="black"/>
</svg>
