<svg width="28" height="22" viewBox="0 0 28 22" fill="none" xmlns="http://www.w3.org/2000/svg">
<path d="M2.58909 19.3319H3.21905C4.09563 19.3319 4.80867 18.6191 4.80867 17.7428V15.4725H24.1144V17.7428C24.1144 18.6191 24.8274 19.3319 25.7035 19.3319H26.334C27.21 19.3319 27.9231 18.6191 27.9231 17.7428V7.64957C27.9231 6.77325 27.21 6.06048 26.334 6.06048H25.7035C24.8274 6.06048 24.1144 6.77325 24.1144 7.64957V11.0825H4.80867V4.58909C4.80867 3.71278 4.09563 3 3.21905 3H2.58909C1.71304 3 1 3.71278 1 4.58909V17.7428C1 18.6191 1.71304 19.3319 2.58909 19.3319ZM2.07692 4.58909C2.07692 4.30672 2.30672 4.07692 2.58909 4.07692H3.21905C3.50195 4.07692 3.73174 4.30672 3.73174 4.58909V12.1594H25.1913V7.64956C25.1913 7.36719 25.4211 7.13739 25.7035 7.13739H26.334C26.6164 7.13739 26.8462 7.36719 26.8462 7.64956V17.7428C26.8462 18.0252 26.6164 18.255 26.334 18.255H25.7035C25.4211 18.255 25.1913 18.0252 25.1913 17.7428V14.3956H3.73174V17.7428C3.73174 18.0252 3.50195 18.255 3.21905 18.255H2.58909C2.30672 18.255 2.07692 18.0252 2.07692 17.7428V4.58909Z" fill="#010101"/>
<path d="M11.5225 6.38465C10.4851 6.38465 9.64055 7.22889 9.64055 8.26664C9.64055 9.30413 10.4851 10.1484 11.5225 10.1484H20.8699C21.9074 10.1484 22.7519 9.30413 22.7519 8.26664C22.7519 7.22889 21.9074 6.38465 20.8699 6.38465H11.5225ZM21.675 8.26664C21.675 8.71045 21.3137 9.07144 20.8699 9.07144H11.5225C11.0787 9.07144 10.7175 8.71045 10.7175 8.26664C10.7175 7.82283 11.0787 7.46158 11.5225 7.46158H20.8699C21.3137 7.46158 21.675 7.82283 21.675 8.26664ZM7.88357 6.38281C6.84503 6.38281 6 7.22758 6 8.26611C6 9.30465 6.84503 10.1497 7.88357 10.1497H7.94772C8.98625 10.1497 9.83128 9.30465 9.83128 8.26611C9.83128 7.22758 8.98625 6.38281 7.94772 6.38281H7.88357ZM8.75436 8.26611C8.75436 8.71097 8.39258 9.07276 7.94772 9.07276H7.88357C7.4387 9.07276 7.07692 8.71097 7.07692 8.26611C7.07692 7.82152 7.4387 7.45974 7.88357 7.45974H7.94772C8.39258 7.45974 8.75436 7.82152 8.75436 8.26611Z" fill="#010101"/>
</svg>
