<svg width="25" height="25" viewBox="0 0 25 25" fill="none" xmlns="http://www.w3.org/2000/svg">
<path d="M12.52 1C6.16816 1 1 6.16816 1 12.52C1 18.8718 6.16816 24.04 12.52 24.04C18.8718 24.04 24.04 18.8718 24.04 12.52C24.04 6.16816 18.8718 1 12.52 1ZM22.0802 8.04064L18.0784 9.69856C17.4772 8.52094 16.5195 7.56324 15.3419 6.96208L16.9998 2.96032C19.2318 4.01248 21.028 5.80866 22.0802 8.04064ZM12.52 17.8C9.6088 17.8 7.24 15.4312 7.24 12.52C7.24 9.6088 9.6088 7.24 12.52 7.24C15.4312 7.24 17.8 9.6088 17.8 12.52C17.8 15.4312 15.4312 17.8 12.52 17.8ZM16.1133 2.59024L14.4558 6.59104C13.8311 6.38549 13.1777 6.2805 12.52 6.28C11.8437 6.28 11.1942 6.39136 10.5842 6.59104L8.92672 2.59024C10.049 2.1832 11.2586 1.96 12.52 1.96C13.7814 1.96 14.991 2.1832 16.1133 2.59024ZM8.04064 2.95984L9.69856 6.9616C8.52082 7.5626 7.56308 8.52034 6.96208 9.69808L2.96032 8.04016C4.01248 5.80818 5.80866 4.012 8.04064 2.95984ZM2.59024 8.92672L6.59104 10.5842C6.38552 11.2089 6.28054 11.8623 6.28 12.52C6.28 13.1963 6.39136 13.8458 6.59104 14.4558L2.59024 16.1133C2.1832 14.991 1.96 13.7814 1.96 12.52C1.96 11.2586 2.1832 10.049 2.59024 8.92672ZM2.95984 16.9994L6.9616 15.3414C7.56276 16.5191 8.52046 17.4768 9.69808 18.0779L8.04016 22.0797C5.80818 21.0275 4.012 19.2313 2.95984 16.9994ZM8.92672 22.4498L10.5842 18.449C11.1942 18.6486 11.8437 18.76 12.52 18.76C13.1963 18.76 13.8458 18.6486 14.4558 18.449L16.1133 22.4498C14.991 22.8568 13.7814 23.08 12.52 23.08C11.2586 23.08 10.049 22.8568 8.92672 22.4498ZM16.9994 22.0802L15.3414 18.0784C16.5191 17.4772 17.4768 16.5195 18.0779 15.3419L22.0797 16.9998C21.0275 19.2318 19.2313 21.028 16.9994 22.0802ZM22.4498 16.1133L18.449 14.4558C18.6486 13.8458 18.76 13.1963 18.76 12.52C18.76 11.8437 18.6486 11.1942 18.449 10.5842L22.4498 8.92672C22.8568 10.049 23.08 11.2586 23.08 12.52C23.08 13.7814 22.8568 14.991 22.4498 16.1133Z" fill="black" stroke="black"/>
</svg>
