<svg width="30" height="30" viewBox="0 0 30 30" fill="none" xmlns="http://www.w3.org/2000/svg">
<path d="M18.75 17.5C19.0815 17.5 19.3995 17.3683 19.6339 17.1339C19.8683 16.8995 20 16.5815 20 16.25V13.75C20 13.4185 19.8683 13.1005 19.6339 12.8661C19.3995 12.6317 19.0815 12.5 18.75 12.5C18.4185 12.5 18.1005 12.6317 17.8661 12.8661C17.6317 13.1005 17.5 13.4185 17.5 13.75V16.25C17.5 16.5815 17.6317 16.8995 17.8661 17.1339C18.1005 17.3683 18.4185 17.5 18.75 17.5ZM3.75 16.25C3.41848 16.25 3.10054 16.3817 2.86612 16.6161C2.6317 16.8505 2.5 17.1685 2.5 17.5V22.5C2.5 22.8315 2.6317 23.1495 2.86612 23.3839C3.10054 23.6183 3.41848 23.75 3.75 23.75H26.25C26.5815 23.75 26.8995 23.6183 27.1339 23.3839C27.3683 23.1495 27.5 22.8315 27.5 22.5V17.5C27.5 17.1685 27.3683 16.8505 27.1339 16.6161C26.8995 16.3817 26.5815 16.25 26.25 16.25C25.9185 16.25 25.6005 16.1183 25.3661 15.8839C25.1317 15.6495 25 15.3315 25 15C25 14.6685 25.1317 14.3505 25.3661 14.1161C25.6005 13.8817 25.9185 13.75 26.25 13.75C26.5815 13.75 26.8995 13.6183 27.1339 13.3839C27.3683 13.1495 27.5 12.8315 27.5 12.5V7.5C27.5 7.16848 27.3683 6.85054 27.1339 6.61612C26.8995 6.3817 26.5815 6.25 26.25 6.25H3.75C3.41848 6.25 3.10054 6.3817 2.86612 6.61612C2.6317 6.85054 2.5 7.16848 2.5 7.5V12.5C2.5 12.8315 2.6317 13.1495 2.86612 13.3839C3.10054 13.6183 3.41848 13.75 3.75 13.75C4.08152 13.75 4.39946 13.8817 4.63388 14.1161C4.8683 14.3505 5 14.6685 5 15C5 15.3315 4.8683 15.6495 4.63388 15.8839C4.39946 16.1183 4.08152 16.25 3.75 16.25ZM5 18.525C5.72394 18.2622 6.34943 17.783 6.79145 17.1523C7.23347 16.5216 7.4706 15.7701 7.4706 15C7.4706 14.2299 7.23347 13.4784 6.79145 12.8477C6.34943 12.217 5.72394 11.7378 5 11.475V8.75H17.5C17.5 9.08152 17.6317 9.39946 17.8661 9.63388C18.1005 9.8683 18.4185 10 18.75 10C19.0815 10 19.3995 9.8683 19.6339 9.63388C19.8683 9.39946 20 9.08152 20 8.75H25V11.475C24.2761 11.7378 23.6506 12.217 23.2086 12.8477C22.7665 13.4784 22.5294 14.2299 22.5294 15C22.5294 15.7701 22.7665 16.5216 23.2086 17.1523C23.6506 17.783 24.2761 18.2622 25 18.525V21.25H20C20 20.9185 19.8683 20.6005 19.6339 20.3661C19.3995 20.1317 19.0815 20 18.75 20C18.4185 20 18.1005 20.1317 17.8661 20.3661C17.6317 20.6005 17.5 20.9185 17.5 21.25H5V18.525Z" fill="black"/>
</svg>
