<svg width="25" height="24" viewBox="0 0 25 24" fill="none" xmlns="http://www.w3.org/2000/svg">
<path d="M14.5 19C14.5 19.5523 14.9477 20 15.5 20C16.0523 20 16.5 19.5523 16.5 19H14.5ZM2.5 19C2.5 19.5523 2.94772 20 3.5 20C4.05228 20 4.5 19.5523 4.5 19H2.5ZM18.0352 4.46452C17.6447 4.074 17.0115 4.074 16.621 4.46452C16.2305 4.85505 16.2305 5.48821 16.621 5.87874L18.0352 4.46452ZM16.621 10.1213C16.2305 10.5119 16.2305 11.145 16.621 11.5356C17.0115 11.9261 17.6447 11.9261 18.0352 11.5356L16.621 10.1213ZM20.2071 2.29289C19.8166 1.90237 19.1834 1.90237 18.7929 2.29289C18.4024 2.68342 18.4024 3.31658 18.7929 3.70711L20.2071 2.29289ZM21.0327 10.706L21.9566 11.0887L21.0327 10.706ZM18.7929 12.293C18.4024 12.6835 18.4024 13.3167 18.7929 13.7072C19.1834 14.0977 19.8166 14.0977 20.2071 13.7072L18.7929 12.293ZM16.5 19C16.5 17.457 15.5619 16.1826 14.2973 15.3395C13.0258 14.4918 11.3267 14 9.5 14V16C10.987 16 12.2879 16.4036 13.1879 17.0036C14.0949 17.6083 14.5 18.3338 14.5 19H16.5ZM9.5 14C7.67326 14 5.97422 14.4918 4.70266 15.3395C3.43809 16.1826 2.5 17.457 2.5 19H4.5C4.5 18.3338 4.90506 17.6083 5.81206 17.0036C6.71207 16.4036 8.01303 16 9.5 16V14ZM9.5 11C7.84315 11 6.5 9.65685 6.5 8H4.5C4.5 10.7614 6.73858 13 9.5 13V11ZM6.5 8C6.5 6.34315 7.84315 5 9.5 5V3C6.73858 3 4.5 5.23858 4.5 8H6.5ZM9.5 5C11.1569 5 12.5 6.34315 12.5 8H14.5C14.5 5.23858 12.2614 3 9.5 3V5ZM12.5 8C12.5 9.65685 11.1569 11 9.5 11V13C12.2614 13 14.5 10.7614 14.5 8H12.5ZM16.621 5.87874C16.8996 6.15731 17.1206 6.48803 17.2713 6.85201L19.1191 6.08664C18.8678 5.48001 18.4995 4.92882 18.0352 4.46452L16.621 5.87874ZM17.2713 6.85201C17.4222 7.21612 17.4998 7.60615 17.4998 7.99997H19.4998C19.4998 7.34322 19.3703 6.69314 19.1191 6.08664L17.2713 6.85201ZM17.4998 7.99997C17.4998 8.39395 17.4222 8.78408 17.2714 9.14805L19.1192 9.91342C19.3705 9.30678 19.4998 8.65657 19.4998 7.99997H17.4998ZM17.2714 9.14805C17.1207 9.51195 16.8997 9.84271 16.621 10.1213L18.0352 11.5356C18.4995 11.0713 18.8679 10.5201 19.1192 9.91342L17.2714 9.14805ZM18.7929 3.70711C19.3566 4.27086 19.8038 4.94013 20.1089 5.6767L21.9567 4.91133C21.5511 3.93211 20.9566 3.04236 20.2071 2.29289L18.7929 3.70711ZM20.1089 5.6767C20.414 6.41322 20.571 7.2026 20.571 7.99992H22.571C22.571 6.94008 22.3623 5.89062 21.9567 4.91133L20.1089 5.6767ZM20.571 7.99992C20.571 8.7972 20.4139 9.58673 20.1088 10.3233L21.9566 11.0887C22.3622 10.1094 22.571 9.05982 22.571 7.99992H20.571ZM20.1088 10.3233C19.8037 11.06 19.3566 11.7293 18.7929 12.293L20.2071 13.7072C20.9566 12.9576 21.551 12.0678 21.9566 11.0887L20.1088 10.3233Z" fill="#002961"/>
</svg>
