<svg width="25" height="24" viewBox="0 0 25 24" fill="none" xmlns="http://www.w3.org/2000/svg">
<path d="M16.5 20C16.5 20.5523 16.9477 21 17.5 21C18.0523 21 18.5 20.5523 18.5 20H16.5ZM6.5 20C6.5 20.5523 6.94772 21 7.5 21C8.05228 21 8.5 20.5523 8.5 20H6.5ZM20.5 16.9999C20.5 17.5522 20.9477 17.9999 21.5 17.9999C22.0523 17.9999 22.5 17.5522 22.5 16.9999H20.5ZM18.7536 13.2822C18.2193 13.1421 17.6727 13.4617 17.5327 13.9959C17.3926 14.5302 17.7122 15.0768 18.2464 15.2168L18.7536 13.2822ZM2.5 16.9999C2.5 17.5522 2.94772 17.9999 3.5 17.9999C4.05228 17.9999 4.5 17.5522 4.5 16.9999H2.5ZM6.75358 15.2168C7.28782 15.0768 7.60736 14.5302 7.46731 13.9959C7.32726 13.4617 6.78065 13.1421 6.24642 13.2822L6.75358 15.2168ZM17.8331 9.49097C17.4216 9.8593 17.3865 10.4915 17.7549 10.903C18.1232 11.3145 18.7554 11.3496 19.1669 10.9812L17.8331 9.49097ZM13.8331 5.01876C13.4216 5.38708 13.3865 6.01928 13.7549 6.43081C14.1232 6.84233 14.7554 6.87735 15.1669 6.50903L13.8331 5.01876ZM5.83309 10.9812C6.24461 11.3496 6.87681 11.3145 7.24514 10.903C7.61346 10.4915 7.57844 9.8593 7.16691 9.49097L5.83309 10.9812ZM9.83309 6.50903C10.2446 6.87735 10.8768 6.84233 11.2451 6.43081C11.6135 6.01928 11.5784 5.38708 11.1669 5.01876L9.83309 6.50903ZM18.5 20C18.5 18.6823 17.6151 17.6602 16.55 17.0212C15.4651 16.3702 14.0308 16 12.5 16V18C13.7306 18 14.7963 18.3014 15.521 18.7362C16.2656 19.1829 16.5 19.6608 16.5 20H18.5ZM12.5 16C10.9692 16 9.53492 16.3702 8.44997 17.0212C7.38493 17.6602 6.5 18.6823 6.5 20H8.5C8.5 19.6608 8.73436 19.1829 9.47896 18.7362C10.2037 18.3014 11.2694 18 12.5 18V16ZM22.5 16.9999C22.5 16.0262 22.008 15.2023 21.3309 14.5934C20.6565 13.987 19.752 13.5439 18.7536 13.2822L18.2464 15.2168C19.0139 15.418 19.6094 15.7351 19.9935 16.0805C20.375 16.4235 20.5 16.7434 20.5 16.9999H22.5ZM4.5 16.9999C4.5 16.7434 4.62503 16.4235 5.00645 16.0805C5.3906 15.7351 5.98611 15.418 6.75358 15.2168L6.24642 13.2822C5.24799 13.5439 4.3435 13.987 3.66912 14.5934C2.99202 15.2023 2.5 16.0262 2.5 16.9999H4.5ZM12.5 13C11.3954 13 10.5 12.1046 10.5 11H8.5C8.5 13.2091 10.2909 15 12.5 15V13ZM10.5 11C10.5 9.89543 11.3954 9 12.5 9V7C10.2909 7 8.5 8.79086 8.5 11H10.5ZM12.5 9C13.6046 9 14.5 9.89543 14.5 11H16.5C16.5 8.79086 14.7091 7 12.5 7V9ZM14.5 11C14.5 12.1046 13.6046 13 12.5 13V15C14.7091 15 16.5 13.2091 16.5 11H14.5ZM19.1669 10.9812C19.9836 10.2502 20.5 9.18476 20.5 8H18.5C18.5 8.59224 18.2438 9.12333 17.8331 9.49097L19.1669 10.9812ZM20.5 8C20.5 5.79086 18.7091 4 16.5 4V6C17.6046 6 18.5 6.89543 18.5 8H20.5ZM16.5 4C15.4762 4 14.5401 4.38597 13.8331 5.01876L15.1669 6.50903C15.5214 6.19174 15.9871 6 16.5 6V4ZM7.16691 9.49097C6.75615 9.12333 6.5 8.59224 6.5 8H4.5C4.5 9.18476 5.01635 10.2502 5.83309 10.9812L7.16691 9.49097ZM6.5 8C6.5 6.89543 7.39543 6 8.5 6V4C6.29086 4 4.5 5.79086 4.5 8H6.5ZM8.5 6C9.01288 6 9.47858 6.19174 9.83309 6.50903L11.1669 5.01876C10.4599 4.38597 9.52383 4 8.5 4V6Z" fill="#002961"/>
</svg>
