<svg width="21" height="20" viewBox="0 0 21 20" fill="none" xmlns="http://www.w3.org/2000/svg">
<path d="M1.71799 2.09204L2.60899 2.54603L1.71799 2.09204ZM2.5918 1.21799L3.04579 2.10899L2.5918 1.21799ZM2.5918 18.782L3.04579 17.891H3.04579L2.5918 18.782ZM1.71799 17.908L0.82698 18.362H0.82698L1.71799 17.908ZM19.2822 17.908L18.3912 17.454L19.2822 17.908ZM18.4078 18.782L17.9538 17.891L18.4078 18.782ZM19.2822 2.09204L18.3912 2.54603V2.54603L19.2822 2.09204ZM18.4078 1.21799L18.8618 0.32698V0.32698L18.4078 1.21799ZM14.5 19C14.5 19.5523 14.9477 20 15.5 20C16.0523 20 16.5 19.5523 16.5 19H14.5ZM4.5 19C4.5 19.5523 4.94772 20 5.5 20C6.05228 20 6.5 19.5523 6.5 19H4.5ZM10.5 10C9.39543 10 8.5 9.10457 8.5 8H6.5C6.5 10.2091 8.29086 12 10.5 12V10ZM8.5 8C8.5 6.89543 9.39543 6 10.5 6V4C8.29086 4 6.5 5.79086 6.5 8H8.5ZM10.5 6C11.6046 6 12.5 6.89543 12.5 8H14.5C14.5 5.79086 12.7091 4 10.5 4V6ZM12.5 8C12.5 9.10457 11.6046 10 10.5 10V12C12.7091 12 14.5 10.2091 14.5 8H12.5ZM18.5 4.19995V15.8H20.5V4.19995H18.5ZM16.3002 18H4.7002V20H16.3002V18ZM2.5 15.8V4.19995H0.5V15.8H2.5ZM4.7002 2H16.3002V0H4.7002V2ZM2.5 4.19995C2.5 3.6234 2.50078 3.25114 2.52393 2.96783C2.54612 2.6962 2.5838 2.59549 2.60899 2.54603L0.82698 1.63805C0.634191 2.01642 0.562872 2.40961 0.53057 2.80495C0.499222 3.18861 0.5 3.6564 0.5 4.19995H2.5ZM4.7002 0C4.15663 0 3.68874 -0.000777125 3.30498 0.0305674C2.90962 0.0628601 2.51624 0.134156 2.13781 0.32698L3.04579 2.10899C3.09517 2.08383 3.19595 2.04613 3.4678 2.02393C3.75126 2.00078 4.12365 2 4.7002 2V0ZM2.60899 2.54603C2.705 2.35761 2.85788 2.20474 3.04579 2.10899L2.13781 0.32698C1.57306 0.614732 1.11447 1.07382 0.82698 1.63805L2.60899 2.54603ZM4.7002 18C4.12367 18 3.75127 17.9992 3.46782 17.9761C3.19598 17.9538 3.09519 17.9161 3.04579 17.891L2.13781 19.673C2.51623 19.8658 2.90959 19.9371 3.30496 19.9694C3.68873 20.0008 4.15662 20 4.7002 20V18ZM0.5 15.8C0.5 16.3435 0.499222 16.8113 0.530569 17.195C0.562868 17.5904 0.634179 17.9836 0.82698 18.362L2.60899 17.454C2.58381 17.4046 2.54613 17.3039 2.52393 17.0322C2.50078 16.7488 2.5 16.3765 2.5 15.8H0.5ZM3.04579 17.891C2.85777 17.7952 2.70494 17.6424 2.60899 17.454L0.82698 18.362C1.11452 18.9264 1.57317 19.3853 2.13781 19.673L3.04579 17.891ZM18.5 15.8C18.5 16.3766 18.4993 16.7489 18.4762 17.0323C18.454 17.3041 18.4163 17.4047 18.3912 17.454L20.1732 18.362C20.3661 17.9835 20.4373 17.5902 20.4696 17.1949C20.5008 16.8112 20.5 16.3434 20.5 15.8H18.5ZM16.3002 20C16.8438 20 17.3115 20.0008 17.6951 19.9694C18.0904 19.9371 18.4835 19.8657 18.8618 19.673L17.9538 17.891C17.9043 17.9162 17.8036 17.9539 17.5321 17.9761C17.2489 17.9992 16.8767 18 16.3002 18V20ZM18.3912 17.454C18.2956 17.6417 18.1425 17.7948 17.9538 17.891L18.8618 19.673C19.4257 19.3856 19.8853 18.927 20.1732 18.362L18.3912 17.454ZM20.5 4.19995C20.5 3.6565 20.5008 3.1887 20.4695 2.80511C20.4373 2.40983 20.3661 2.01653 20.1732 1.63805L18.3912 2.54603C18.4164 2.59537 18.454 2.69598 18.4762 2.96767C18.4993 3.25105 18.5 3.6233 18.5 4.19995H20.5ZM16.3002 2C16.8768 2 17.2489 2.00078 17.5321 2.02393C17.8036 2.04611 17.9043 2.08377 17.9538 2.10899L18.8618 0.32698C18.4835 0.134214 18.0904 0.06288 17.6951 0.0305714C17.3115 -0.000778198 16.8437 0 16.3002 0V2ZM20.1732 1.63805C19.8854 1.07316 19.4259 0.614393 18.8618 0.32698L17.9538 2.10899C18.1424 2.20507 18.2956 2.35828 18.3912 2.54603L20.1732 1.63805ZM16.5 19C16.5 15.6863 13.8137 13 10.5 13V15C12.7091 15 14.5 16.7909 14.5 19H16.5ZM10.5 13C7.18629 13 4.5 15.6863 4.5 19H6.5C6.5 16.7909 8.29086 15 10.5 15V13Z" fill="#002961"/>
</svg>
